/* XPM */
static char *_366a17c1e644ce7d40a548fa7a9ce87yAucdpa87srZ6Epk[] = {
/* columns rows colors chars-per-pixel */
"64 64 249 2 ",
"   c #181D1F",
".  c #1C201F",
"X  c #0C1521",
"o  c #0F1822",
"O  c #161926",
"+  c #1B1C32",
"@  c #241D36",
"#  c #1E3434",
"$  c #2B302D",
"%  c #29243B",
"&  c #31273D",
"*  c #4C203E",
"=  c #264439",
"-  c #29453A",
";  c #2A493D",
":  c #354C3C",
">  c #4B4E38",
",  c #6A613A",
"<  c #2C2941",
"1  c #352B46",
"2  c #2B3449",
"3  c #36364A",
"4  c #3C344C",
"5  c #303952",
"6  c #3B3954",
"7  c #591E42",
"8  c #44354B",
"9  c #473A57",
"0  c #443D55",
"q  c #443D5B",
"w  c #5A3458",
"e  c #6C3153",
"r  c #4C3E66",
"t  c #503F69",
"y  c #7A3A62",
"u  c #2D4C41",
"i  c #374B46",
"p  c #2E5A49",
"a  c #385549",
"s  c #325D4B",
"d  c #2E4559",
"f  c #374758",
"g  c #3A5954",
"h  c #32614E",
"j  c #346351",
"k  c #3B6554",
"l  c #3A4C66",
"z  c #3B5464",
"x  c #385369",
"c  c #3E4F70",
"v  c #44564C",
"b  c #484559",
"n  c #4B425C",
"m  c #52485C",
"M  c #475957",
"N  c #525550",
"B  c #634E58",
"V  c #466656",
"C  c #506955",
"Z  c #4B7553",
"A  c #6D6B4D",
"S  c #4A4362",
"D  c #4A4767",
"F  c #544C63",
"G  c #574A65",
"H  c #53436D",
"J  c #534C6B",
"K  c #475668",
"L  c #595669",
"P  c #544B71",
"I  c #415271",
"U  c #585878",
"Y  c #724E6A",
"T  c #665769",
"R  c #635C6B",
"E  c #655B76",
"W  c #775874",
"Q  c #496568",
"!  c #586967",
"~  c #57756B",
"^  c #586774",
"/  c #516E70",
"(  c #66666C",
")  c #66746B",
"_  c #777169",
"`  c #686677",
"'  c #6C6C7C",
"]  c #766979",
"[  c #697979",
"{  c #76757A",
"}  c #8A3967",
"|  c #90386B",
" . c #8B714E",
".. c #97625A",
"X. c #864B74",
"o. c #8E4A70",
"O. c #895A78",
"+. c #94587C",
"@. c #87657B",
"#. c #877670",
"$. c #598A7E",
"%. c #68837A",
"&. c #788E7A",
"*. c #908A55",
"=. c #AA8F59",
"-. c #B5A45B",
";. c #8F906E",
":. c #AD956F",
">. c #98A36E",
",. c #9CAA72",
"<. c #AFA76F",
"1. c #A5B379",
"2. c #C0AB5D",
"3. c #C8B16B",
"4. c #D8BB6A",
"5. c #D6BB77",
"6. c #DBC26A",
"7. c #DCC474",
"8. c #E3C466",
"9. c #E5C967",
"0. c #E3C66A",
"q. c #E6CA6A",
"w. c #EACD6B",
"e. c #E4D06F",
"r. c #EED26D",
"t. c #F1D56E",
"y. c #F3D96F",
"u. c #E5CB78",
"i. c #EDD372",
"p. c #EBD37D",
"a. c #F2D772",
"s. c #F5DA71",
"d. c #F9DE73",
"f. c #FBE275",
"g. c #715C83",
"h. c #5C6480",
"j. c #696A85",
"k. c #757482",
"l. c #7A7687",
"z. c #7C7C84",
"x. c #74768A",
"c. c #975C81",
"v. c #886B81",
"b. c #976584",
"n. c #867886",
"m. c #8A7995",
"M. c #9175A4",
"N. c #5A8D83",
"B. c #5D9489",
"V. c #688888",
"C. c #778786",
"Z. c #689589",
"A. c #629B8E",
"S. c #789689",
"D. c #7A8A95",
"F. c #649E92",
"G. c #6A9A92",
"H. c #769A94",
"J. c #66A295",
"K. c #69A396",
"L. c #69A699",
"P. c #68A79A",
"I. c #69A79A",
"U. c #78A397",
"Y. c #88858A",
"T. c #948A8C",
"R. c #83958E",
"E. c #9A968B",
"W. c #8B8A95",
"Q. c #988C97",
"!. c #889895",
"~. c #999598",
"^. c #AC9394",
"/. c #A6989B",
"(. c #88A498",
"). c #96A79B",
"_. c #97B39C",
"`. c #AFA795",
"'. c #8F90A7",
"]. c #9897A6",
"[. c #A899A4",
"{. c #AC96B4",
"}. c #9CA8A4",
"|. c #92B3A9",
" X c #A7A7A8",
".X c #B7A9AB",
"XX c #A6B6A8",
"oX c #B6B6AC",
"OX c #A9AAB5",
"+X c #B4ADB6",
"@X c #ABB3B6",
"#X c #B7B6B7",
"$X c #C6AB85",
"%X c #D4B787",
"&X c #CDB394",
"*X c #C2ACA9",
"=X c #C7B7B7",
"-X c #C8B2B2",
";X c #9EC2BC",
":X c #ADCCB3",
">X c #B8C7B8",
",X c #DAC588",
"<X c #DACA9B",
"1X c #E3CB89",
"2X c #EDD788",
"3X c #E7D699",
"4X c #DAC7A7",
"5X c #C6C6B8",
"6X c #D1C6B7",
"7X c #D5CBBC",
"8X c #D8CEBE",
"9X c #D9D2B3",
"0X c #E5D9B0",
"qX c #EAE1B0",
"wX c #AB8BC2",
"eX c #B8A8CC",
"rX c #B7BBC6",
"tX c #C3BDC5",
"yX c #C3A9D3",
"uX c #C5B7D9",
"iX c #CAB5E3",
"pX c #BCC2C5",
"aX c #B8D2CF",
"sX c #BCC5D3",
"dX c #C6C6C8",
"fX c #D7CBC6",
"gX c #D9CFC1",
"hX c #DCD3C3",
"jX c #D7D7CB",
"kX c #CCCCD5",
"lX c #D1CFD3",
"zX c #D5D7D8",
"xX c #DADCDE",
"cX c #E0CDCE",
"vX c #E0D6C6",
"bX c #E1D8C7",
"nX c #E3DAC9",
"mX c #E4D7D6",
"MX c #DAE1DD",
"NX c #E9E5C7",
"BX c #CDC8E1",
"VX c #D3C9E6",
"CX c #D9D9E4",
"ZX c #E1DDF1",
"AX c #DCE5E8",
"SX c #E4EAEA",
"DX c #EFF1EF",
"FX c #E6EAF3",
"GX c #EAF4F6",
/* pixels */
"X X X X X X X X X X X X X $ 4.8.9.9.9.q.w.w.w.w.w.w.r.r.r.r.r.r.y.r.r.r.r.r.r.r.r.w.w.w.9.9.w.9.9.8.8.8.8.8.8.8.8.8.8.8.8.8.8.8.",
"X X X   X X X X   X X X $ N 4.8.8.9.q.q.8.w.w.w.w.t.r.t.i.r.y.r.y.y.y.y.y.t.t.r.r.r.r.w.w.w.9.9.9.9.9.8.8.8.8.8.8.8.8.8.8.8.8.8.",
"X X X O o X X X X X X X , =.8.8.9.9.9.9.w.w.w.r.t.r.r.t.s.y.s.e.s.r.6.y.y.y.t.t.r.r.r.w.w.w.9.9.9.8.8.8.8.8.8.8.8.4.8.8.8.8.4.8.",
"X X   . o o O   X X X X o i 3.8.9.w.w.w.w.w.t.r.t.t.t.t.s.y.s.y.e.*.&.6.6.i.y.t.r.y.r.r.w.w.w.w.q.9.9.9.8.0.8.8.8.8.8.8.7.5.<X4X",
"O O . .   .   X X X X O + k..X%X6.w.w.w.r.r.r.t.t.t.a.s.s.s.s.6.A ) Q.<.*.r.s.y.y.y.r.r.r.w.w.w.q.w.q.0.8.0.0.8.8.8.4.&XcXmXCXCX",
"N > .       X X X X X i _ $X%X6.w.w.w.r.r.w.4.r.s.s.s.d.d.s.-.> k OX XR.N -.f.s.y.y.y.r.r.r.w.w.w.9.q.q.9.8.8.8.8.8.$X*X*XuXiXVX",
"> $ . . X X X X @ $ o #.&X4.w.w.w.w.w.8.....e ..3.a.d.d.w.*.= ; R.oX XE.Z %.i.f.s.y.y.r.r.r.w.w.w.9.9.q.8.8.8.8.8.5.$X$X$X{.yXeX",
"> . .   X X X X A -.*.4.q.w.w.w.w.w.8...7 7 e } } ..d.4.A = = %.#X>XdX X;.j >.f.d.s.y.y.y.r.r.r.u.1X<X7.0.9.8.8.8.4.8.8.5.3.$X5.",
", $ O $ X o $ > 2.t.r.r.w.w.w.w.r.3X#.e @.Q.[.^.+.o.=.v ; ; M XXSXxXoXzX X! Z u.f.d.2Xp.i.r.i.e.0XAXAXMX<X9.9.9.8.8.8.8.8.8.8.8.",
"$ $   , $ O *.4.r.r.1X9X=X1X4X7X4X*X@.`.=X=X7XmXhX-X( ; = u R. XlXxXoXDX>XC.s *.2XNXSXDXNXi.r.p.AXGXAXAXlX6.8.6.8.8.8.8.8.8.8.8.",
",  .> *.-.> N 4.u.,XtXyXeX-XfXiXiX[./.*X*X.XcXmXfXmXoXi u K Y.].#X5XoXSXzX~.~ V 9XGXGXGXGXbX3X0XSXSXCXVXuX%X<X4X8.8.8.8.8.8.8.8.",
"9.8.2.r.d.-.*.w.t.u.,X&X&X&XyXeXyX{.[.=Xn.W cX-XQ.mX/.i K L J U k.W.).dX5X X%.k U.GXGXGXGXGXGXGXFXSXCXkXyXtXAXCX%X8.8.8.8.8.8.8.",
"t.t.t.t.y.r.w.a.t.t.t.t.i.w.u.&XyX{.#.*X] L fX/.T -XM K U J q 9 6 t P m.]. XQ.V k OXFXFXZXZXGXFXAXBXCXAXCXBXkXeX6X1X6.u.4.u.,X8.",
"t.t.t.t.t.t.y.a.t.t.t.r.1X3X1Xu.u.`.T *X] T =X=XT.! ! ` E r @ @ 1 4 4 9 J E { ! s %.CXZXZXCXFXGXAXCXBXAXSXSXCXkXAXMXjXjXfXzXlXfX",
"4X<X3X2Xa.a.y.y.t.t.y.t.u.-X4Xu.y.$XW .X] F fXmXR.! dXdXOXE O % r + + 1 r J m z j k @XGXGXGXGXFXVXiXVXzXtX=XhXAXAXVXCXVXBXyX-X*X",
"&X,X1Xp.y.d.y.y.t.y.y.y.y.t.t.t.3.;.( .X] ( cXXXM XXlXFXDXOX8 9 g.6 @ 4 0 J ! j j j ~ BXFXZXVXBXiXyXyX&Xu.q.6.5XBXBXyXeX.X%X8.8.",
"d.d.d.y.d.y.y.y.y.y.y.y.y.y.r.*.> ) #..X.X-X.XM R.CXMXSXSX+X8 < g.3 9 P S E R.~ h h h Y.<X4X<.4.1X1Xu.u.w.w.8.%XeXyXeX5.4.8.8.8.",
"y.s.d.d.s.d.d.d.y.a.3XqXa.6.A - = &.[..X-X[.) ! @XxXSXSXSX+XS D g.q n W m.]. X!.k h h Z 6.y. .=.s.t.t.w.w.w.r.8.8.5.0.9.8.8.8.8.",
"y.y.d.3XNX2Xy.d.d.p.mXDX`.> - - = _ E.~.}. XT.Y.~. XrXlXCXzX{.m.M.M.M.g. XFXMX X~ h j h *.=.e ..4.t.t.w.r.w.w.8.8.8.8.9.8.8.8.8.",
"y.y.1XxXFXqX2Xs.d.4XiXrXv = - ; : ! { Y.k.R m L T ' n.].OX=XkXrX{.wXwXM.+XFXSX5XS.k j s a e y } ..r.t.t.r.r.r.w.q.q.9.8.8.0.8.0.",
"3XqXhXVXuXfXDXNXNXMXVX! = - = = N T 9 9 m G G n.v.' G L ` k.W. XOXOX{.{.rXMXAXlX).! h p * 7 o.| +.4.y.t.r.r.w.w.w.0.9.8.0.5.%X*X",
"ZXZXCXmX/. XNX0XmXCXR.- = = i ) ( 8 9 9 S 9 G m.l.l.P G J J F L ( D.}.+XkXxXAXxXdXR.j = 7 e y | o...t.t.t.r.r.r.w.w.w.8.0.0.5.%X",
"2X3X2Xa.#.<.f.d.p.;.i - : C z.] m 8 9 9 % % 9 ' L L J J D b D F L F F ` Y.].@XdXzX#XQ # * 7 y } | _ 8.t.r.t.r.r.w.w.0.q.0.8.8.8.",
"s.s.d.d.#.:.i.p.6.> - a { ] T F n 8 % 4 + + T ' L J 0 D D J D D ' ' F J F m L { W.}.%.# 7 7 y } o.A 8.t.a.r.r.r.w.w.w.w.0.8.8.8.",
"s.d.d.t._ :.3.#., : ! { R m S n b 1 % G % 5 Q.'.` j.G q @ 2 P P x.x.D D S 6 6 3 b N a & 7 7 e y } B 3.d.y.t.t.r.r.w.w.9.9.8.0.0.",
"d.d.d.t.W :.:.b C ` R m n q 9 S S n 0 n.n S [.Q.k.Q.m.U O % P h.x.x.S q S S b b R ^ ! 8 w 9 B W Y N *.d.s.t.t.t.r.r.w.w.9.w.0.0.",
"3.d.d.w.T #.*.( R F n 0 6 r r n S L m n.1 3 Q.Y.( m.Q.'.3 q j.h.x.x.1 @ < q P ` k.P b 6 F G F U ` m N e.s.s.t.i.r.r.w.9.w.0.w.0.",
"E u.f.4.T G R m b 6 4 1 3 n n S S F 4 n.< 5 [.Q.k.W.T.M.3 K eXOXOX'.q + @ q j.OX].D.U l b b T G L m v -.d.s.s.t.t.r.w.w.w.w.w.0.",
"H :.d.3.H G r T A < @ O 1 9 n S S G 0 n.n T Q..XdXrX~.'.n ` eXrXrXrX` 6 5 U '.sXOXrX;X'.0 6 Q.8 G T T.4.d.i.e.s.t.r.r.w.w.w.u.8.",
"H W a.:.H H t W #.@ + O < r D D S E ] [.[..X X#XxXlX+X@XOX[. XOXOXrX' D t M.sXrXrXpXrXeXL q Q.m E ;.7.s.a.4.<.s.t.t.t.w.w.w.w.q.",
"H :.u.#.t t t E _ @ @ 6 U F S D D ]  X X+X.X X#XzXxXdXkXdX#X+X XdXlXY.n.l.].rXrX@XrXsX+XT 4 [.S g.<.f.<._ ;.#.r.a.t.t.r.w.0.w.w.",
"H #.#.9 H t H E A G l. X@Xx.P f b z. X*X-X[.{ %.C.).XX X@XpXkXzXzXxX#X#X+XOXOX}.pXrXsX+X] L [.E l.:.a.;.c L L 5.a.t.w.4.4.3.3.2.",
"t H t t t H U W.!.}.@XpX#XD.5 u - Y.`.T.) a : s s s h h s V ! A.).XXpXpXpXdXdXpXdX@X|.@X-X-X=XfX-X$X5.( K _ c _ =.#.Y Y #.B w w ",
"S H H D H r g. X X X X!.%.g = ; ; v a : = ; u s s h h h h h j g s s j k Q ~ V.) ! a ! [ Y..X.XdXtX`.{ K K ! c 9 _ @.w Y #.T t w ",
"V V V V M v R !.[ ! g u ; ; ; ; = = = = - - u s p s h h h h j j h h h h h h ; = ; ~ ~.R.! &..XmX5XR.j.x D c c D @.@.] n.E.n.n.@.",
"Z Z Z Z V ; - ; = = = = ; ; ; i M ! ) %.C.Y.!.R.R.C.%.%.~ ~ ~ k k k h h p p ; ; ~ ~.>XoXR.V V [ [ j k z l I I K #.Y.#.n.n.n.T.E.",
"Z Z Z : = = = ; u a g C ) [ C.n.{ Y.z.l.k.l.m.m.Y.Q.~. XOXOX}.}.}.}.!.H.Z.[ Q C.@XoX X X XY.V h h j h j g c c K Y././.E.T.~./.~.",
"Z Z : : : v N ) z.z.z.l.] ` E G b 0 b q 9 w m 9 T T F b H t P U E ` ' k.C.Y.{ Y.~.@X@X#X#X+X!.! Q V k k j s f K W.Y./.n.] #./..X",
"Z C ! ( ( T L m m m n 9 0 9 n q L 8 & 4 & & 8 1 T T 8 D H h.t I D S D D S b b L j.U L U R ( T ( [ ( ( ) [ ! M b { ` /.Y.L { Q.~.",
"#XY.{ _ ( m & 4 4 4 0 9 1 q S n E 8 O & O O 8 + m m 1 D H h.h.P q 6 h.U L N F ` ' D J J 8 L m r m 1 2 6 6 b m M Y.n. XT.T.n.P D ",
"SXdXlXCXxXW.5 1 1 @ & 9 & 9 S S E 8 O & O O 8 + m m 1 J U ^ h.h.q r h.h.^ b b { J 1 l H % L n % 9 l c l x [ ` I Q. XQ.^.Q.E t t ",
"zXzX!.!.SX!.3 < 4 @ @ r 1 r n r E m % m 1 & W 8 ` E m J h.h.h.h.q l h.h.U m m k.P 5 S P % L m @ 9 6 l l c j.' I Q.[.E.Q.Y.H H t ",
"kXzXW.j.'.U 5 < 1 @ % q 1 q S n E G 8 T 4 4 v.m ' n.] '.'.'.'.'.x.D.j.x.{ k.l.Y.h.5 D U 1 R E % S 6 l l l j.` I T.n.[. Xm.P H r ",
"kXlX@X^ z l 6 1 1 @ 1 n r n n r R m & T & 3 v.1 ' n.] +XrXsXsXsXBXeXrXeX X5X#X XOX'.].].G { W.0 n.J c l l ` ' K Y.( ~./.Q.j.H t ",
"dX#XT.K 5 d l d 4 4 9 q n n S q R T 1 W 3 4 n.8 ! n.n.eXsXsXsXsXsX].T.}./.`.`.~.rXrXsXOX~.~.+X+X#XU l l l ` ` I W.k.E P P P t t ",
"[ b f f 2 d d d 6 0 0 9 9 n n 9 T { #.T.#.Y.^.n.] Q.=XrXrXrXrXtXsXOX).,.>.`.T.Y.eXkXsXOX/.W.-XmXfXm.^ L K { ' L ].Q.n.x.n.x.x.l.",
"< < % 2 d x x d f T G F G m S m R T.^./..X.X.X.XE.`.+XrXrXrX#XrXrX X`.<.>.<.E.Y.OXrXsX#X-X/.oXdXdX#X#X+X X[.C.^ x.l.D.D.j.K J J ",
"& % % 2 d x x d M R.W.Y.z.] ' ] _ E..X.X.X.X#X+X[..X=XtXtXtXpXdXsX X`.$X<..X.XE.@X>X#XoX X X#XdXtX~.z.OXdX=XW.j.!.(.P.A.Q ' ^ ` ",
"m 8 4 < 2 5 d d f ~ [ S.)._.~.!.Y. X#X X@X X X.X/./.oX#XaX5XdXdXkXoXoXdX>X5XpXE.,.1.1.1.>.;.`.:X}.z x ^ !.D.^ K Q H.P.N.^ ' ` T ",
"V.Y y B 9 2 d d 5 f f Q ~ V.K Q b ` XX:X:XXX_.(.m Y XX:X:X:X:X:X>X_.:X:X:X:X(.) >.>.,.1.,.>.>.XXC.d x l z z z z K ^ H.G.H.V.{ R ",
"P.G.' O.O.B L K 2 2 2 d d d x x x z (.R._.XX_.[ f f V.:X:XaX:XC.(._.S.S.;X(.x z Z >.,.,.,.,.;.;.B G T W ' k.%.[ x.j.] k.J.P.P.J.",
"aX|.F.G.] Y X.] D f f 2 2 < d x x f M z &._.H.g x x f [ XX_.H.x z V b l ~ / f x g %.>.1.1.1.1.,.#.] ] ] k.k.] v.n.l.z.C.P.P.P.J.",
"|.F.P.P.P.j.W X.@.k.Z.! f 2 2 2 l d 2 d g f i 3 l x l 2 z f i x x d 3 K d z / / ( %.&.&.).>X9X8X7X5X5X#XXX|.!.(.U.G.K.K.A.A.A.H.",
"|.|.|.I.P.P.G.k.+.O.n.C.[ G F V M z d f b 6 3 f x x x n Y B m Q ^ ! ! D.x.Z.P.G.S.G.S.&.C.m.^.vXnXnXNXnXnXnX8X8X7X6X5XoXXXoX=X5X",
"AXAXaXI.F.K.P.V.O.+.c.v.z.;.C.C.V.A.V.%.#.&.$.Z.V.j.^ l.[ { ] W O.O.@.n.l.V.Y.l.v.v.v.O.b.v.#.(.XXhXnXnXnXnXvXvXbXvXvXvXhX8X9X7X",
";X|.P.P.P.P.F.F.k.Y +.+.c.b.b.b.n.C.D.S.Z.S.&.S.U.U.K.S.V.Z.Z.O.W Y +.O.+.X.c.O.X.v.n.' x.G.F.G.).hXnXnXnXnXvXvXnXhXhXhXhX8X8X7X",
"J.F.J.J.K.L.K.P.P.G.x.W X.X.c.b.b.b.v.V.V.D.z.v.n.C.{ v.@.O.O.+.@.V.V.{ ' ' x.Z.V.G.P.K.H._.XX5XhXnXnXnXnXnXbXvXhXhXhXhXgX7X7X7X",
"J.J.J.J.F.L.P.P.F.J.L.G.V.W g.W | +.c.W b.O.+.b.+.b.O.+.+.W ] { V.N.A.A.F.A.Z.G.(._.oX>XgXhXnXnXnXhXnXnXhXbXvXhXbXhXhXhX7X7X7X6X",
"F.J.J.J.K.P.P.P.P.K.P.P.P.J.G.x.` ] ` y O.W g.k.k.C.V.V.Z.G.J.J.G.G.U.(._.XX=X6XhXnXnXnXhXhXnXnXnXhXbXhXbXhXhXhXhXhXhXgX7X7X6X6X",
"J.A.F.J.J.F.J.J.P.P.P.K.L.P.P.K.L.K.F.V.V.G.L.K.P.J.B.A.K.U.S.).#X5X6X8X8XhXhXhXhXnXhXhXhXnXjXnXhXnXbXhXbXhXhXhXhX8X8X7X7X7X5XoX",
"A.J.A.B.A.B.F.J.P.J.P.P.P.P.P.L.P.K.L.P.P.P.A.B.J.Z.U._.oX7X7X8X8X8XhX8X8X8XhXbXhXhXhXhXhXnXhXhXbXbXhXhXhXvXhXhX8X8X8X8X=XR.Z.Z.",
"A.A.A.J.F.F.J.F.F.P.J.F.F.K.F.L.P.A.A.A.N.G.G.|.@X>X5XgXhXhX8X8X8X8X8XhXhX8XhX8XhXhXhXhXhXhXhXhXhXhXhXhXhX8XhX8X8X6X>X_.S.$.$.$.",
"A.F.A.F.J.F.J.J.F.J.F.F.G.A.F.F.B.Z.!.XXoX>X5XgXhXhXhXhXhXgX8XhX8X8X8X8X7XhXhX8XgXjXhXhXhXhXhXhXhXhXhXhX8X8X7X5XXXU.A.$.B.B.B.B.",
"A.F.A.A.F.F.F.F.F.F.F.F.Z.N.G.(.XX>X7XgXhX8XhXgXgXgXgXgXgXgX8X8X8X8X7X8X8XgX8XhXgXgXgXgXhXhXgXhXgXgXhXhX8X>X).U.Z.B.A.A.A.A.A.A."
};
