/* XPM */
static char *c083fe3cbfb5449eb071bc52b1c0f688tE6HhC4jKI6kHLLJ[] = {
/* columns rows colors chars-per-pixel */
"64 64 245 2 ",
"   c #010101",
".  c #0B0403",
"X  c #0A0609",
"o  c #0D0B0A",
"O  c #0B0907",
"+  c #130D0B",
"@  c #170C07",
"#  c #15110D",
"$  c #1B120D",
"%  c #1D1508",
"&  c #151211",
"*  c #1D1512",
"=  c #1B1C1C",
"-  c #1E1812",
";  c #141012",
":  c #23140B",
">  c #29170A",
",  c #381C0A",
"<  c #211613",
"1  c #241A14",
"2  c #2A1C15",
"3  c #251D1A",
"4  c #2B1E19",
"5  c #2E1614",
"6  c #321E13",
"7  c #331F18",
"8  c #2B0F01",
"9  c #28230C",
"0  c #39240A",
"q  c #2E2116",
"w  c #2D211A",
"e  c #272717",
"r  c #3B2415",
"t  c #34231B",
"y  c #39261D",
"u  c #3C2A1E",
"i  c #342515",
"p  c #3C3216",
"a  c #232323",
"s  c #2B2B2B",
"d  c #2C2724",
"f  c #342922",
"g  c #3D2B21",
"h  c #332D2A",
"j  c #382720",
"k  c #3C312C",
"l  c #343535",
"z  c #3B3B3C",
"x  c #383736",
"c  c #2E302F",
"v  c #1F2021",
"b  c #4A1F08",
"n  c #47280B",
"m  c #562A09",
"M  c #4A350D",
"N  c #5A370B",
"B  c #432C1D",
"V  c #4B2D1C",
"C  c #462915",
"Z  c #512D12",
"A  c #473418",
"S  c #54331E",
"D  c #583917",
"F  c #693909",
"G  c #753905",
"H  c #653B15",
"J  c #692F01",
"K  c #432E22",
"L  c #4B2E23",
"P  c #463123",
"I  c #4B3325",
"U  c #4D3529",
"Y  c #4E392A",
"T  c #483628",
"R  c #523525",
"E  c #543925",
"W  c #5B3B25",
"Q  c #523729",
"!  c #553A2A",
"~  c #5B3D2C",
"^  c #593623",
"/  c #443C37",
"(  c #5D3E30",
")  c #513F33",
"_  c #613F2C",
"`  c #623D24",
"'  c #613E32",
"]  c #554213",
"[  c #53511E",
"{  c #774609",
"}  c #674817",
"|  c #784917",
" . c #655418",
".. c #79571A",
"X. c #73520B",
"o. c #77661D",
"O. c #77610E",
"+. c #5E402D",
"@. c #5B4826",
"#. c #4A413B",
"$. c #5D4232",
"%. c #554438",
"&. c #4B4121",
"*. c #62412E",
"=. c #6C4B2B",
"-. c #674628",
";. c #734C29",
":. c #785627",
">. c #654431",
",. c #694632",
"<. c #6B4935",
"1. c #654A38",
"2. c #714C39",
"3. c #714D36",
"4. c #6F5731",
"5. c #6E6725",
"6. c #7A6626",
"7. c #736D3B",
"8. c #3F4042",
"9. c #434344",
"0. c #4B4B4B",
"q. c #4C4844",
"w. c #574C47",
"e. c #5B534E",
"r. c #4D4E50",
"t. c #4F5151",
"y. c #545454",
"u. c #5B5B5C",
"i. c #595757",
"p. c #685447",
"a. c #73594A",
"s. c #665B57",
"d. c #685346",
"f. c #68625C",
"g. c #776458",
"h. c #5B5D61",
"j. c #5F6167",
"k. c #636363",
"l. c #6B6C6C",
"z. c #686667",
"x. c #766A63",
"c. c #7B726D",
"v. c #6C6D73",
"b. c #6F7074",
"n. c #767778",
"m. c #5F615E",
"M. c #813B00",
"N. c #854706",
"B. c #88580D",
"V. c #885914",
"C. c #955913",
"Z. c #935610",
"A. c #A55D0B",
"S. c #8A6619",
"D. c #966818",
"F. c #987719",
"G. c #8F6C13",
"H. c #B87A16",
"J. c #A77114",
"K. c #87582A",
"L. c #895930",
"P. c #846623",
"I. c #946826",
"U. c #987B25",
"Y. c #946C2C",
"T. c #AD712E",
"R. c #C07C0F",
"E. c #917151",
"W. c #816F64",
"Q. c #877C76",
"!. c #88766B",
"~. c #A9861A",
"^. c #B68A19",
"/. c #998927",
"(. c #A68821",
"). c #B38B28",
"_. c #AD9A29",
"`. c #B69828",
"'. c #AF8F34",
"]. c #B7A429",
"[. c #BCAD31",
"{. c #9D8D1C",
"}. c #C69119",
"|. c #C89125",
" X c #CAB62C",
".X c #D3B72C",
"XX c #E19F20",
"oX c #DDCC32",
"OX c #E5C72B",
"+X c #9E8452",
"@X c #BBAD4D",
"#X c #8D827A",
"$X c #93857B",
"%X c #B4976B",
"&X c #B9B073",
"*X c #BB9951",
"=X c #C7BF5C",
"-X c #E6CE41",
";X c #D1CC7C",
":X c #E6D56E",
">X c #7D7D83",
",X c #7F8289",
"<X c #898788",
"1X c #8B8B94",
"2X c #969698",
"3X c #968C88",
"4X c #A49A96",
"5X c #A3958D",
"6X c #B2A995",
"7X c #9A9BA4",
"8X c #9FA0AA",
"9X c #A8A7AA",
"0X c #B2ABA8",
"qX c #A9AAB4",
"wX c #BCBBBB",
"eX c #B4B5B7",
"rX c #B5B3B0",
"tX c #C8B48F",
"yX c #C3BEB8",
"uX c #D0C891",
"iX c #C9C3BB",
"pX c #D8D4A9",
"aX c #EFEBB6",
"sX c #EBDD94",
"dX c #BBBCC5",
"fX c #C1BFC0",
"gX c #BEC1CA",
"hX c #C7C6C7",
"jX c #CDCDD3",
"kX c #DDDDDD",
"lX c #D6D6D8",
"zX c #D3D1CF",
"xX c #E0DFDD",
"cX c #E6E5DB",
"vX c #F7F2D2",
"bX c #DBDBE2",
"nX c #E5E5EB",
"mX c #EBECEC",
"MX c #E5E5E5",
"NX c #E9EAF2",
"BX c #ECF0F8",
"VX c #F2F3F3",
"CX c #F4F5F8",
"ZX c #FEFEFE",
"AX c #F7F9FB",
/* pixels */
"Q ^ ~ t L ~ R q.9.s l.z.<X9.8.0.x h f n.d ; m.v = $.r 2X8XxXa.L L g L K t 2 K K g ~ R *.*.~ q g u g +.! K g +.g >.<.K 2 . X $ # ",
") ~ ' K t ~ ! 0.z.s u.b.t.#.l.9.u ~ d u.z = y.l = R g.eX<XnXxXU K u K K u B ~ ~ I +.! >.Q P t ~ I P ! ! T Q Q g I 1 o : u t 4 + ",
"U ~ ~ ! 7 U ~ i.k.9.9.i.8.l 8.0.u *.u / h # 9.t.x ! 9X7X1XgXZX0Xr K U ~ I I >.~ ! $.I Y ! U K ! u Q *.*.I ~ t o o $ h e.~ +.P - ",
"t E ~ ~ K j E s.h.9.c = x 9.r.w.y ! I I ! : l <XP Q.qX1X2X7XZXZXQ., ~ ~ L ! >.I K U ! $.~ K K ~ I *.! u 1 < X 2 ! k z p.~ ,.j j ",
"j g I U R t L e.l.=   s t.y.h ! B Q Q U ~ 2 v 1Xe.9X1X7X1Xa 6XZXmX%.E *.B K U K ~ ! Q Y ! P +.+.T R t + # 1 2 I B x z 8.1.R t 2 ",
"j 1 I ! ~ g u ) b.8.s s u.e.A +.I I ! P ( i e >X2X9X7X9Xz   -.iXZXwXK P y Q >.U U I ! ,.>.Y >.u - + O $ t 2 t y w 0.c x i.2 < O ",
"g g K ~ ~ ! t I k x x a u.s.E ! ! I W I ! h y.<XqX7XqXb.    E | mXZXx.V Y Q U B ~ ! <.3.>.u 1 O O q q 0.l.k Q / z.y.O 9.9.> 2 2 ",
"K K 7 ! E ~ u K _ h s x z.s.^ ! E u W B z u.k.7XqX9X7X=     %.J E.ZXkXU I Q ~ ~ >.>.<.! $ # t P *.Q / n.i.t.l.m.n.0.s f.h I ~ P ",
"g u P j ! ~ Q u ~ ) z h y.f.U k i.k.%.#.v.l.i.eXqXeXi.  X   / V.b 6XZX3XR ,.>.,.*.g * # q +.+.! ,.Y u.f.x u.l.u.l.y.s r.k *.>.u ",
"K g y t R +.( u L _ Q y l k.0.z.n.i.>X1Xm.w Q.hXeX7Xo   X   s.E.G W mXBX1._ ~ u $ * P ,.%.0.t.I +.y.u.i.9.b.z.m.y.z 9.x Y +.P < ",
"3 K u I K $.~ R B +.*.t ; y.b.l.x + s e.! *.fXgXhXh.  @ @   z.E.K.m c.ZX5XB L t I ,.3.+.s l w.w.z.k.b.y.9.m.k.y.l.9.z l <.*.y w ",
"t Q I I u ! +.~ K U ~ U + = e q R ~ L I V c.lXjXdXX   , >   9.6XL.G , kXmX>.*.,.>.*.~ R k z l l.h.0.l.q.9.0.l.0.0.y.e T <.g u K ",
"* g +.Q I I +.+.I K +.E Y t ~ ,.>.Q I U I rXkXmXn.  > , >   c eXtXG m x.ZX$X^ ,.*.+.~ ! i.c 9.z.u.u.y.y.0.d l.y.a 9.3 ,.~ g *.u ",
"g g *.+.T u ! *.~ K ! ~ ! ~ ! U K K ! ~ a.MXnXmXa   n , @   i 7.vXV.F N cXzXW ' *.! ` s.u.a <Xz.u.z y.#.K 2 f.m.= 8.q.~ P >.*.4 ",
"Q u u I u B I _ ~ I I ! I K K Q ( *.>.C <XAXZXrX  8 m > O   e p ).+XX.X.&XZXa._ +.$.~ f.t.9.n.z.l.y.m.$.K ~ %.u & 0.1.I ! ,.y 2 ",
"u y 1 K ~ U B U R P t B I ~ >.*.~ Q ! ^ hXZXZXz.  , m % O   p [ D.T...B.'.AX5X^ ,.,.I k.u.0.b.i.z a i.u u _ W y = t.Q I ! t t K ",
"2 Q U K ' ~ ! K I K I ~ _ ~ ! ! ! _ _ a.VXZXVXv   M n . O e [ 9 o.o.F.F.}.vXlXD <.>.B s.j.y.m.s t.m.y.S *.R P 2 = w.U Q P y B 1 ",
"t Q >.I ! ! K K ! *._ ! R Q ~ *.>.,.D Q.ZXZXwX  @ m , @ &.4.4.B o @ F.~.XX:XBXa.=.<.*.k.z.9.0.9.i.#.I +.R I +.e r.i.U >.I y 1 q ",
"g u Q K t U ( ~ E ! E ! ~ >.,.,.>.,.R 0XZXZXQ.  n N : 9 =.*.! 3.B   G._.OXoXZXQ._ 2.-.s.b.c s 9.u.~ *.~ ~ *.%.y.r./ E I P y K K ",
"w t t ! ! ~ ~ U I ! +.>.>.>.,.3.,.! R lXZXZX%.0 X.] 9 p =.+.,.<.I   o.].oXoXvX9X` 2.3.#.u.o q c z.*.*.~ *.~ u.>X>Xq.g.x.u Q Q t ",
"y U Q E ~ I U Q ~ *.,.,.>.<.1.P t Q p.VXZXcXM O.{.} ] 5.,.' U ! D , F. X X[.aXzX_ <.<.>.h 8.#.h f.S R w.%.#.zXZXZXZXZXZX4Xu y 2 ",
"E Q I B I I ! >.<.*.*.3.<.B $ $ U ] W.AXAXrXX.@X@XG.G.{.4.,., + ).H./.`.[.].;XMX,.>.,.,.#.z Q x l./ z.n.u.n.ZXZXAXZXZXZXZXQ.r u ",
"P ! u P Y >.*.! *.>.+.t # < U *.*.S 5XAXCXtX{.;XuXG.G.5.4.=.F } '._.U.]..X X;XNXg.*.1.,.$.>.L s c.>Xl.m.z 9XZXZXZXZXZXAXZX4Xr 3 ",
"w u U +.,.~ R ~ I 2 # 1 U *.! +.,.E rXAXBXiXpX@X_.G.G.] p /.|.U.v M F.`.`. X:XmX!.W <.>.*.,.~ + x i.9XVXmXZXZXZXZXZXZXZXZX4X    ",
"* t >.<.,.*.T + + t ! ,.,.~ Q ~ *.W hXZXmXxXZX&X].F.F./.X. ./.p 9 0 ..G.F.`.=XMX5X^ ,.,.,.( >.U O 2XZXZXZXZXZXZXZXZXZXZXZXZX0.  ",
"u ! +.*.g $ + y ~ >.*.+.Q +.~ I *.<.lXVXMXmXZXtX{.U.F./.O.M     A 9 6.F.J.`.&XmX0X^ ,.,.! ! *.R x.ZXZXZXZXZXZXZXZXZXZXZXAXZXwX  ",
"+.*.4 + # y ! ~ ~ ~ +.! ~ +.Q +.>.2.xXCXMXVXCX&XF.(./.V.{ M     p } A V.A.~.uXMXwXW <.! Q *.>.r 6XZXAXZXZXZXZXZXZXZXZXZXZXZXhX  ",
"$ O # y I Q I ! ! ~ +.~ ! ! +.,.*.g.nXVXnXmXlX XJ.U.C.{ F N :   e  .] J.A.H.sXnXhX~ >.~ >.>.~ r 4XZXZXZXZXZXZXZXZXZXZXZXZXZX9X  ",
"# 2 y V ! U I U +.>.*.! +.,.=.1.>.W.nXVXxXpX@XF.`.Z.V.S.C.C : . & A ).p ] ~.vXnXjX,.*.,.>.! I I lXZXZXZXZXZXZXZXZXZXZXZXAXZXQ.  ",
"2 t I *.Q t I >.W >.' $.,.<.,.1.` !.nXBXuX`. XB...N.{ G.F A ,   : D }   % }.vXnXjXd.*.<.! Q R #XZXZXZXZXZXZXZXZXZXZXZXZXAXZXn.. ",
"t U I : > ! ( ~ g.$.,.,.2.2.<.2.-.!.xXBXtX~.U.).B.{ G | : i >   i } P.  % ).tXdXkXa.~ Q ~ >.V 5XZXZXZXZXZXZXZXZXZXZXZXZXZXZX<X. ",
"t : $ 1Xf.n Q 0XZXg.*.,.<.2.<.2.-.Q.lXNX&XF.V.D.N.A.B.| ] M .   e o.4.  9 S.%XMXbXp.V $.~ Q S W.ZXZXZXZXZXZXZXZXZXZXZXZXZXZXe.. ",
"& w.iXZXMX<XhXZXZX3XS <.2.2.<.2._ Q.lXbX%X{.V.M.C...X.G.D 2 X   p  .~ . 0 A.%XcXbXs.~ ~ E ' >.~ zXZXZXZXZXZXZXZXZXZXZXZXZXkX* $ ",
"wXZXZXAXZXZXZXCXZX0X~ 2.2.3.2.<._ <XjXbX+XB.).D.]     M V.]  .  A S.~ X p A.*XvXbXg.S ~ *.,.$.: 9XZXAXZXZXZXZXZXZXZXZXAXZXhX+ * ",
"MXZXZXZXZXAXZXZXZXiX*.2.1.*.! >.` $XhXjXE.{ { ^.-.$     S.S. .O M | ( @ } J.'.aXbXg.E ,.>.I t : yXZXAXZXZXZXZXZXZXZXZXZXZXzX+ < ",
"kXZXZXZXZXZXZXZXZXkX1.*.*.+.! >.` $XgXhXE.N.N.G.3.( O   > F.p   M } U > ..Z.F.sXlXx.` ( u t t $ hXZXZXZXZXZXZXZXZXZXZXZXZX9X: $.",
"kXZXZXZXZXZXZXZXZXCX1.*.$.*.>.>.^ Q.hXgXE.G N.H.-.<.u     S.+   M H I m D.C.R.:XzXg.A j t t 1 @ rXZXAXZXZXZXZXZXZXZXZXZXAXd.W *.",
"kXZXZXZXZXZXZXZXAXZX2XS >.~ >.<.W Q.gXdXg.G.F.H.-.*.~ @   ] 9   Z H B N ^.C.R.:XzXs.6 g t < 2 : e.ZXZXZXZXZXZXZXZXZXAXZX9XS >.+.",
"kXZXZXZXZXZXZXZXZXZXZXQ.R <.*.,.' Q.dXdXf.B.P.N ;.( ,.> . M A   n } g X | H.R.-XzXs.2 t w < 1 t @ c.BXZXZXAXZXZXZXZXZXVX1._ ,.>.",
"kXZXZXZXZXZXZXZXZXAXZXZXQ.W ,.,.` W.qXdXf.8 :.0 ..! <.B 8 n ]   n H ( P   G }..XhXe.: w 2 2 4 2 4 : 1 0XZXZXZXZXZXZXqXp.! ( ~ ~ ",
"kXZXZXZXZXZXZXZXZXZXZXZXVXw._ ,.' g.8XqXh.   .S.P._ ,.R n m M   , D ( ,.K X (.oXhXs.: w t 4 t t t t @ i.2X0XZXZXZX4Xr W ~ U Q ~ ",
"kXZXZXZXZXZXZXZXZXZXZXAXZX5XR ,.' g.8X1Xr.  5.A  .*.~ Q m F  .  , S ( Q L < i oXjXe.> t t j t t w q w d $ # 0XlXQ.Q *.+.~ _ ~ ~ ",
"kXZXZXZXZXZXZXZXZXZXZXZXZXwXR ,._ a.7X1X9.  9 6.).@.! ~ G N.... , S K u y g ; 5.lXw.2 u w w 4 2 2 1 2 2 w 2 r Q I _ +.*.*.~ *.$.",
"kXZXZXZXZXZXZXZXZXZXZXZXZXMX%.,._ 2.1X>X9.      ].Y.U ( | N.o.$ 0 C K y 7 K V 6 rXa.D P.:.} W -.E V r 4 1 P +.+.>.+.~ ~ W ~ ~ ! ",
"kXZXZXZXZXZXZXZXZXZXZXZXZXZXa.` _ w.>X>X8.      /.].U $.{ N...n n C 3 y K W Y.;.h.g.C @...K.;.L.L.T.T.Y.+.L.;.W E Q } :.:.:.I Y ",
"kXZXZXZXZXZXZXZXZXZXZXZXZXZXx.V _ %.v.b.y.      [ 7.( ( } Z.N m n D U.-.w I @.T.K.+.Q C N C W W =.I.L.L.:.L.=.E Q B V H ..} @.w ",
"kXZXZXZXZXZXZXZXZXZXZXZXZXZXf.L ,.' k.b.h.o     6.,.,.,.L { , n , I.'.6.h g u K.K.2 O b m : + < 2 I Q _ E g i 1 - o $ Z H H N o ",
"kXZXZXZXZXZXZXZXZXZXZXZXZXZXc.^ ( R u.b.j.#   A :.' _ g * X > m > H S Z : * u P w $ . m m C d d w f f j w 3 e - # O : Z F D Z 3 ",
"kXZXZXZXZXZXZXZXZXZXZXZXZXZX#XC I ~ e.v.v.v . o.*.Q 2 * K.S @ , > Z b m : u P K y y t 6 2 4 7 t t w 1 e 2 3 1 < e < : , : $ :   ",
"kXZXZXZXZXZXZXZXZXZXZXZXAXZX#XB >.R e.k.>Xl 0 :.t $ t ;.T.r @ n b Z b Z u g y t j j t t y t t 4 w j j t t w 2 $ + X X           ",
"kXZXZXZXZXZXZXZXZXZXZXZXZXZX$XS ( ~ w.k.1X0.F r + V Y.-.4./.@ m U.} , g K B K j u y t t t 7 w t 4 7 t 7 w w 2 * & O           t ",
"kXZXZXZXZXZXZXZXZXZXZXZXZXmXs.L ' _ w.z.7Xn.m ! L.Y.-.( P 6.].OX(.7 U I P I I K g j t g U Q ~ ~ ~ Q Q K t w 2 < 1 4 y 2 : g Q ` ",
"kXZXZXZXZXZXZXZXZXZXZXZXMX%.L ~ >.*.d.n.qX0XN.! P U +.u - 5 { ^.V.P U U U K P K u j K ~ >.( ~ ~ ~ >.>.,.*.~ _ *._ *.*.,.>.,.-.^ ",
"kXZXZXZXZXZXZXZXZXZXZXZX3XC >.*.>.>.) <XjXjXT.T.w ; - o y e . M &.U U U P P I K g L *._ ~ ~ _ $.! ~ ~ *.*.*.*.~ *._ _ _ >.~ -.! ",
"kXZXAXZXZXZXZXZXZXZXxX%.R ,.*.,.,.j < <XNXwXU 4.=.o   w t > % D.@.L U P I L K K ! _ _ >.*.>.*.~ ~ ~ _ _ _ ~ _ *.~ _ *._ >.` ~ 2 ",
"kXZXZXZXZXZXZXZXZXZX9XV <.*.,.Q 2 5 @ <XZX$Xy T *.1 = 2 w t 0 }.4.K U P I K L ~ >._ >.*.*.*._ ~ ~ ~ *.+.*._ _ _ _ *._ *.` -.4 I ",
"xXZXZXZXZXZXAXZXmXZXhXV >.>.g < 5 ; | tXNXa.7 k Y w w w u | M .XoX@.K U P U $.*._ _ >._ _ _ *.~ ! ~ ~ +.*.~ _ _ ~ *._ ~ ` g t <.",
"eXZXAXZXZXZXZXiXU s.9X! ! t < 2 $ -.XXtXbXL ; f k 1 t t u H.o.F.OX[ K P U >.>._ _ >._ >._ _ _ ~ ~ ! ~ ~ +._ *.~ _ *._ -.I 5 >.*.",
"/ AXZXZXwX<XhX$.R U g K 1 < 1 & S T.T.%X9X5 * * 3 w t i ..n C.A.Z...T ! ,.*._ *._ >._ *.>.~ ~ _ ~ ~ _ ( *.~ _ _ _ ~ -.-.1 Q ,.*.",
"V f.lX4XV S I U *.+.t & 1 < < t ;.;.K.E.Q.j 5 < t y t u 6./.D.D.D.P.=.>.*.>.>.*.*.~ _ *._ ~ ~ *.' ~ ' _ ~ -._ *._ _ =.t K ,.>.>.",
"E V g V >.,.~ >.I 3 - 3 < * t y T =.=.&.w.: 4 t t t y g @.S.OX.X}.} >._ *.>.*.>.~ +._ *._ *.*._ _ ~ _ *._ *.*.' -.=.K 2 ,.*.,.>.",
"K U ! ,.~ Q I w & < - < < P.).-.T Q < g u 1 4 t t t t u q @ M ^.J.7 _ >.*.*.*.~ E ~ ~ *.~ *.~ ' *.*.*.*.*._ *._ -.~ * W ,.*.*.~ ",
"t ! $.Q ( L 1 * < - < < :.|.T.(.q   y I 2 t t t t y y t n O O n > 7 ,.*.>.*._ *.*._ _ ~ *.~ _ _ _ *.*.*.*.*._ =.-.5 U <.,.>.>.>.",
"Q ( ~ +.j * < < < 3 < u D.C.I...C e Y 2 t q t 4 t t y g r .       5 ,.>.*.*.*.' _ _ *._ +.*._ *.~ _ *._ _ _ ,.:.j u <.>.>.~ ' >."
};
