/* XPM */
static char *f7d35a9df4bb47c3bd143ff5e50495b3ua8Wvkhyr1RypJuJ[] = {
/* columns rows colors chars-per-pixel */
"64 64 232 2 ",
"   c #030201",
".  c #0A0605",
"X  c #0D0906",
"o  c #0E0A09",
"O  c #090609",
"+  c #120A06",
"@  c #120D0B",
"#  c #1A0F08",
"$  c #16110D",
"%  c #1A130E",
"&  c #1C1511",
"*  c #1E1813",
"=  c #1A1513",
"-  c #0C1E1E",
";  c #22150C",
":  c #2C1B0D",
">  c #25180E",
",  c #211711",
"<  c #231A14",
"1  c #2A1D15",
"2  c #241E19",
"3  c #291F18",
"4  c #331E11",
"5  c #2C2017",
"6  c #25201A",
"7  c #2C221B",
"8  c #242017",
"9  c #32251B",
"0  c #34281E",
"q  c #3B2B1E",
"w  c #382517",
"e  c #1C312F",
"r  c #2C2824",
"t  c #302720",
"y  c #332B22",
"u  c #3C2D22",
"i  c #352F29",
"p  c #3B3126",
"a  c #3C3229",
"s  c #37322B",
"d  c #3A3831",
"f  c #293835",
"g  c #452B17",
"h  c #59361B",
"j  c #4B3019",
"k  c #61391D",
"l  c #412E22",
"z  c #433225",
"x  c #4A3525",
"c  c #453429",
"v  c #493729",
"b  c #4C3A2C",
"n  c #4A3827",
"m  c #513D2F",
"M  c #5A3C24",
"N  c #4C3D32",
"B  c #433B32",
"V  c #523E31",
"C  c #643E23",
"Z  c #38433F",
"A  c #59422C",
"S  c #4B4135",
"D  c #45413C",
"F  c #4A443C",
"G  c #474237",
"H  c #544132",
"J  c #5A4435",
"K  c #594638",
"L  c #5D493A",
"P  c #56483B",
"I  c #674629",
"U  c #774927",
"Y  c #7B532D",
"T  c #624D3C",
"R  c #684D33",
"E  c #69513D",
"W  c #735331",
"Q  c #7A5934",
"!  c #304342",
"~  c #4E4A42",
"^  c #494541",
"/  c #544D43",
"(  c #584D44",
")  c #585348",
"_  c #5B5A54",
"`  c #5B5A55",
"'  c #644E40",
"]  c #655142",
"[  c #6B5443",
"{  c #6E5846",
"}  c #625A4C",
"|  c #6C5A4B",
" . c #725946",
".. c #735C4A",
"X. c #755B48",
"o. c #635C53",
"O. c #675E54",
"+. c #5F605A",
"@. c #7B624D",
"#. c #77604E",
"$. c #62625C",
"%. c #68655C",
"&. c #7B6453",
"*. c #766658",
"=. c #78715F",
"-. c #666561",
";. c #6C6A64",
":. c #6C6864",
">. c #716F69",
",. c #736D65",
"<. c #7D7564",
"1. c #73726D",
"2. c #7D786A",
"3. c #767671",
"4. c #797773",
"5. c #7A7A75",
"6. c #7D7D79",
"7. c #777873",
"8. c #6F706B",
"9. c #8B542D",
"0. c #87552E",
"q. c #92562D",
"w. c #91592E",
"e. c #835C35",
"r. c #8A5C34",
"t. c #935C33",
"y. c #9C5D32",
"u. c #834F29",
"i. c #A05D2F",
"p. c #A15E31",
"a. c #8A653A",
"s. c #866039",
"d. c #9A6539",
"f. c #A46335",
"g. c #A3663A",
"h. c #A66A3C",
"j. c #AA6C3D",
"k. c #A96336",
"l. c #B76F3D",
"z. c #825F43",
"x. c #996C42",
"c. c #9D7145",
"v. c #846955",
"b. c #846C5A",
"n. c #8A6E59",
"m. c #856953",
"M. c #8D715C",
"N. c #957558",
"B. c #8F6A40",
"V. c #A87747",
"C. c #B37E51",
"Z. c #AB7444",
"A. c #847263",
"S. c #8A7665",
"D. c #957963",
"F. c #9B7C64",
"G. c #967B67",
"H. c #827E79",
"J. c #8B7E75",
"K. c #897769",
"L. c #A17E64",
"P. c #B4854C",
"I. c #B8894E",
"U. c #BD8E52",
"Y. c #B78556",
"T. c #B58A55",
"R. c #9E8269",
"E. c #84827D",
"W. c #88837C",
"Q. c #988679",
"!. c #A4846B",
"~. c #AA866C",
"^. c #AC896E",
"/. c #A4836A",
"(. c #BD9262",
"). c #A68973",
"_. c #AD8B72",
"`. c #A28A79",
"'. c #B18E73",
"]. c #AD917B",
"[. c #A5907F",
"{. c #B39176",
"}. c #B5947A",
"|. c #B9977C",
" X c #BB997E",
".X c #C49357",
"XX c #C28C5E",
"oX c #C39767",
"OX c #C49C73",
"+X c #C8A27A",
"@X c #D1A676",
"#X c #8B8783",
"$X c #918D8A",
"%X c #978C84",
"&X c #94918D",
"*X c #979491",
"=X c #999693",
"-X c #9C9A96",
";X c #9D9C9A",
":X c #AA9687",
">X c #B69A83",
",X c #BD9B82",
"<X c #BB9E89",
"1X c #B39886",
"2X c #A19D9A",
"3X c #A69B93",
"4X c #B29E91",
"5X c #BCA18C",
"6X c #A3A19E",
"7X c #AEA39D",
"8X c #BBA493",
"9X c #BCAA9D",
"0X c #B6A499",
"qX c #A19FA0",
"wX c #A6A5A2",
"eX c #ABAAA6",
"rX c #ADACA9",
"tX c #A8A7A3",
"yX c #B8ACA4",
"uX c #B6B3AF",
"iX c #C29E84",
"pX c #C9A788",
"aX c #C2A997",
"sX c #D7B18B",
"dX c #C1AEA2",
"fX c #C4B1A5",
"gX c #C4B4AA",
"hX c #CAB8AB",
"jX c #CABDB6",
"kX c #D1BEB7",
"lX c #D2C4BD",
"zX c #DCCBC3",
/* pixels */
"% & & % % & & & * , @ @ X X @ @ .                               @ q.g k i.i.OXpXpXsXF   < 9.p.Z.g.Z.p.C.c.iXL o t & 7 7 0 0 0 r ",
"$ & & % & * & & , @ @ @ o O . .                                 w U : u.i.i.(.sXpXsXn.  g 9.p.x.p.x.Z.C.Z.oXn.. r 3 < 0 t t t 0 ",
"& & & & * & * * $ @ @ X O                                       w h : q.p.i.Z.+XpXsXn.  h c.x.q.j.p.Z.C.Y.C.g O < y < i y y y 0 ",
"% & & * * , , , @ $ % $ @ @ O                                   # h 4 q.p.p.p.Z.V.oXb.. U Y.y.q.y.p.Z.x.C.d.= o $ i 3 y i y y t ",
"* * * , , < < > , , ; % X @ X                                   . j g C p.p.k.g.i.XXN @ 0.f.u.y.y.t.p.Z.Z.u.O o + p 8 y i y y y ",
", , * < < < < * @ o o @ @ X                       .             . ; j j q.p.g.k.l.z.  w 9.i.U U t.p.k.k.g.C O X % i 8 p q y i y ",
", < < < < < < < @ $ o O                                     X @ # ; g h M U q.y.C .   j 9.p.q.k C U y.x.g.u @ o 8 8 0 s p y y y ",
"< < < < < < < < % @ @ o .                         + w M U r.d.0.9.q.u.9.q.t.d.t.I x 1 h 9.i.i.9.C q.y.x.t.< = @ * 8 a p a a p p ",
"< < < < 3 5 1 , 5 < @ o @ O                 > h U 9.w.U C j g : : : ; : : 5 g h I 0.9.U 9.q.q.i.k.j.j.h.Y $ & * = y a p p p a a ",
"1 3 5 7 7 7 8 % $ , @ o O             X j Y u.U j ; X                             . # 4 k U t.d.d.f.f.j.M o & $ 8 s p a a a a a ",
"7 3 6 6 8 7 7 , @ o @ o @         + h 9.U g +             . . X . .                       X w I d.V.d.9.1 O % $ i a a a a a a a ",
"5 3 1 1 1 7 8 5 1 $ o @ @     X w 9.U ;             X @ % , & & , & & $ @ O                     % C c.Z.q O $ 7 a a a a p a a a ",
"7 3 1 6 7 5 6 7 7 7 % o o   w 9.I 4           X $ & & $ % @ @ @ @ $ $ $ @ @ .                       # I P.W $ i a a a a a p a a ",
"7 7 7 7 6 7 7 7 7 < $ o X   h y.%             $ % @ o                                   . O . O O X O . 8 d.Q y a a a a a a a a ",
"7 7 5 7 7 5 7 7 $ X o o .   h p.#                           .                                   . . X X O $ q i a a a a a a p a ",
"8 6 7 5 7 5 7 7 6 7 8 @ O . ; w O                         .                             . + % % * 6 3 6 7 5 % 5 a a a a a c a c ",
"7 3 7 7 7 7 0 7 y y 0 o o X o   o               @ X , @                                   @ < < 7 r r s a d B i 7 a a p p y 0 7 ",
"7 7 7 7 y y y t t t 7 $ @ X o o .                   % 7 q 1 @ X .                             = r r r i y 7 7 8 * @ & $ $ @ o o ",
"7 0 0 y 0 r 7 y t t y & o o o .         X X             @ < 5 0 q 9 < % @ O                     X = * $ X . . . . .   X o o o o ",
"0 7 r 7 7 y 7 y t y 3 o $ o o         $ q 7 1 7 & o         . & w l u l x l 9 0 < @ +       .           O X X X X X X X   o o O ",
"y t t t y t t t y 6 @ $ @   .       . q 7 1 1 % 1 1 3 , @ X     . O , u l u 1 u 9 % o                           . . . O O @ @ @ ",
"0 t 0 t y t t y 7 @ $ o O   % J.F   ; u q q i $.` i = < 3 % < , o @ 9 x u z &       .   o $ * 3 p z X   .     X o o o @ @ @ @ $ ",
"7 y r t y y y i y p * O     ' _.:X< 0 l b q _ eX-X` f ! E.6.i l y u x z u b w < % ; < 1 3 9 w z n m +       . X @ $ $ $ @ $ $ @ ",
"y y t t 7 3 < & $ $ . O   < [ b _.( K.] g b l b / r f Z H.W.K l b x z z v c N z B _ F - B ` ^ u p n X       X @ @ $ $ @ $ @ @ o ",
"$ @ o o . . . . .     X   B T  .v.] Q.8X[ v V V x m m m z l x b b z J ..T z A m %X#Xf ! 8.uXuX} H H .       @ X @ @ @ @ @ @ @ @ ",
". . . . . . . . . . . .   '  .X.p T :XaX8X&.b v x b x l l u l l A b.8X}.D.J.M.A V V d d B %.L T E v X     + @ $ = $ $ $ $ = @ @ ",
". . . . . . . . . .   X   ] n.K q v :X9X0XaX| K E [ X.X.T K [ M.).fX9XM...0XdXM. .T K I K J L T E 7 ..i   $ X & = & & & , & % & ",
". . O . . . . . . . . X   H N.b u &.Q.aXaX0XS.L./.~.^.^.m.X.F.,XdXgX0X/.n.0XgX1Xn.v.m.[ ' T [ [ b.N ,XH   @ @ * , , , < & % = @ ",
". . . . . . . . . . . .   * n.v p R.%XaXdXyXM.L.L.~.~.~.L.~._.4XgXgX9X}.R.yXhX<XM.D.'.^./.M.{ :X3X] G.B $ O o % & = = $ % @ $ $ ",
". O . . . . X X X   . .     ..[ l =.:XdXdXaXD.~.!.~.~.~._.^.'.aXgXgXfX|.).dXgX<X^.^.^.'.}.|.).lXQ.#.#.1 X   o & < < < 3 < < & & ",
"O X . . O o X X X .   .     u F.T V K.fXdXyXD.~.~.~.^.^._.'.}.<XhXjX5XR._.fXgX>X^.'.'.}.|.}.:XlXS.].b.o     $ 1 < & % @ + @ o X ",
"X X X X X o X O .   . X       v.'.G.O.dXdXyXG.~.!.^.^.'.'.{.|.<XgXQ.K L ' [.8X_._._.'.}.,X].4XjX&.}.N     . X O X O X X X O X O ",
"X X X X X X . . X . . O       u L.N.<.9XgXyXR.~.~.^.'.^.{.}.|.<XG.u l V 3 L |.^.^.'.}.|.iX`.gXyX&.).@     X o o O   .   X X o o ",
". X X X X X . . .   X           T c.X.0XgXyXR.~.^.'.^.{.{.|.|. X). .V V l ..'.^.'.{.|.>X<X:XkX#XR.]   O   $ O O 5 x A R n >   $ ",
". . X O . . O .   . O         X 0 { &.3XhXfXR.~.'.^.'.{.}.|. X,XiX{.m.X.N.}.'.'.'.}.>X<X>X:XkXG.).% o @ o O q B.(.@X@X@X@X(.R % ",
"@ .   X @ + @ @ $ + . o       1 b c a Q.hXgX`.^.'.'.}.}.|.|.}.|.|.|.|.'.'.^.^.^.'.|.>XiX1XdXyXF.K X & = @ W .XoX(.(.(.(.OX+XpXP.",
"X @ o o @ X + o X O o O     O b v m l <.jXgX:X~.^.'.}.|.|.|.,X X|.|.|.}.}.{.'.^.'.|.,X<X:XjX:XL . @ $ o Q .XI.P.I.P.V.P.P.U.OX@X",
"B @ o @ .           .       9 H v m l o.hXgX1X!.'.{.|.|.,XiX_...J [ [  .X.m.'.'.}.|.<X>X:XjXA., @ = o A .XP.P.T.V.a.a.a.a.a.P.U.",
"wX5.r . . @ X   X   .       l V b V z N gXgX8X~.'.}.|.|.].&.K E  .X. .] ' V [ |.'.|.iX].gXtX= @ @ @ , V.I.P.P.V.r.e.R A R Q Q d.",
"$X=X=X:.r . X o X   . .     9 H b V b l %XhX9X!.'.'.|.}.&.&.F.}.iXiX|.}.,X~.J n.,X>X,X1XzX:.  $ 0 t A U.P.I.P.r.Q w X @ % a a.Q ",
"wX=X$X=X=X-.6 . . O O   .   * A v V b b P gXgX].'.'.}.|.{.{.pXpXiXiX|.OX8XiX'.{ _.,X>X0XgX* @ @ t p Q U.P.I.h.e.w . + @ $ X 9 7 ",
"Q.;X2X&X$X=X&X-.r .   . . $ , c v N m b z *.kX4X'.'.}.}.}._.| T [ ] | &.D.!.).'.}.<X}.kX%XO @ @ $ 8 a.U.P.I.a.W % X X X X $ @ @ ",
"V.&X;X2X2X$X$X*X4.B o O . 3 c 0 v m V c V V %XfX'.'.{.}.}. XD.L P L V K N X._.}.|.>XaXyX<.2 . & * * a.U.P.P.a.W $ $ $ $ X X $ 8 ",
"N.*X2X=X2X2X2X>.` d o o . 7 x c z m V b b H V 1X,X^._.'.}.}.,X}.~._.F.'.^.|.}.|.|.,XdX,.:X, X @ $ o W U.I.c.Q W $ X $ 8 d +.E.2X",
"$X=X2X=X=X=X>.` d = $ O @ u p x x b V v v H V L ].'._.'.'.}.}.}.>X|.D.~.{.{.{.|.|.aX,.M.<X2 o o $ O p U.U.a.Q Q d %.E.;XeXeX6X2X",
"qX2X=XqX,.O.-.O.` +.* @ 7 u z c p b V b c H V J H ~.'._.'.'.{.}.}.{.K !.|.{.}.|.iXM.m.1X4X6 X . $ 8 r h.j.Q Q Q $.uX6X2X=X=X2X6X",
"=X=X-X;X` ` -.$.-.` = < g u z x u b m m c H V J m m ^.'.'.'.}.}.|.D.v.>X{.}.}.iX~.#.|.~.dXr 6 -.$.6.6XP Y s.0.A 1.6X;X6X6XrXrXeX",
"K.qX;X3.^ ` $.$.-.o.2 0 u u u z u b m V b V H H H m m ~.}.'.'.}.}.L.).{.}.}.|.|.#.}.].`.dXs 3 >.,.-.6.6.P A L 5.6X-XrXtXrX7XeX6X",
"m.;X#Xo.^ ` +.+.+.-.s q q q z z l v m V c b H H V L V V _.}.'.}.}.}.|.}.}.}.,Xn.F.iXQ.}.gXN + s 3.5.3.E.6X=X6XuXE.#XrXtXtXtXrX-X",
"J.*X-.-.^ ) +.+.+.-.d p q y p u l b b V b c H H V V T V N _.|.}.}.}.}.}.{.|.R.v.OX<X).|.yX,.` B ~ 1.7.3.E.6XeXeX*X*XrXtXtXeXrXtX",
"qX4.` $.~ ~ ) / +.+.7 q u q z q c v b b V l V H V V L T V V /.}.}.|.,X|.,X'.&.}.>X4X).'.9XH.1.;.} _ +.8.8.6.6XrX*X*XrXtXtXeXrXrX",
"$X$.` ` / ~ ~ ~ +.~ 7 0 q q p z x b b b V v N V V V J V T H b H ' E ] ' N V /.|.<X0X_.'.0XW.3.5.8.$.o.+.%.;.6.tX;X&XrXwXtXeXrXeX",
"o.` _ _ ) ~ ~ ) +.D 1 0 0 y u l v v v b V m v V V V J m H T E T T L J v c !.}.}.dX4X'.~.4X%X3.4.5.7.%.$.%.8.7.#X&X&XrX6XeXeXrXrX",
") ) F D D D G +.$.y 4 9 q q q z l v v b V V c V V V J J m V T T T J T v.v.{.'.>XhX1X}.!.4X=X1.4.7.7.5.5.5.6.6.E.;.E.uXeXtXeXeXeX",
"o.o.( F s a G ) s < 9 9 q q q z c l x v V V v v V J V V K b T T T X.!.|.' ~.{.aXgX).>XL.4X3X8.7.3.7.3.7.5.5.1.1.;.5.6XrXrXrXyX6X",
") ( N B G ) } y > y 9 9 0 0 l z l x m m V V b u V V H J J v J X./.|.}.}.N !.>XgX4X_.,X!.:X3X3.7.3.3.7.7.6.8.%.%.;.%.1.&X6XtXuX6X",
"( S G P } } s , u 9 7 9 9 0 g c q z b v b V V b v J H V T H n.|.}.'.|.F.% F.aXgXR.}. X/.Q.3X) E.5.3.7.7.5.5.5.7.;.-.;.6.&X&X*X;X",
"G G F } } G , 0 < $ % 5 w 0 u z y l b b V V T V l V v T !.F.M.{.{.{.,Xa 9 !.hXQ.D.|. X!.S.9XB ^ 8.6.3.3.5.5.5.5.7.;.;.%.W.&X#X&X",
"P G ) } P 8 0 % $ & 8 9 9 9 q z w c v v V V V m K V K  .'.^.D._.}. XD.1 X.}.gX| !.}.|.).&.9X&.J s +.6.5.5.5.6.6.6.6.6.6.6.6XrX6X",
"G P } ) 3 9 , = , 0 9 w 9 0 q q l v v b b m E v.'.M.L [ N.}._.{.'.,XT N D.aX%X' _.}.|._.{ Q.A.L [ n F 8.8.;.=.;.;.%.%.;.%.2.2X;X",
"( ) } i 9 < @ % w 9 9 w 9 0 g u c l b V X.N.^.'.^.'.X.T v.'.'.}.}.{.N #.{.aX&.] _.{.}.{.....Q.L L E J S *.<.=.=.<.<.<.<.<.<.:XuX",
") } s w x  . .u 9 3 9 9 q l 0 q v T m.F.~.^.~.~.^.'.~.E [ _.'.}.|.).' !.|.1X]  ._.}.}. XM.| #.b.S A { E P *.2.<.<.2.<.<.<.<.<.4X",
"} G 9 z  .L.L.D.n.T u u u u b X.G.^.^.L.L.~.~.^.'._.'.F.' M.}.{.|.F.b.}.,XG.]  ._.}.}. X].).v.| E J J [ E T } <.<.<.<.<.<.<.<.S.",
") 0 l b n.m. .T N p 3 @ o o 7 c V ] v.F.~.^.^.^.'.'.'.}.v...}.{.|.R.!.|.|.n.[ [ R.,X}. X}.^. XD.{ [ [ E [ E E ) R.<.<.<.<.<.<.<."
};
