/* XPM */
static char *adb2fc49956440a48853b6aa66dd3628G894pTuWYf9kpKyU[] = {
/* columns rows colors chars-per-pixel */
"64 64 253 2 ",
"   c #050101",
".  c #0C0302",
"X  c #0E0902",
"o  c #0B0609",
"O  c #110602",
"+  c #120903",
"@  c #1A0C03",
"#  c #11060A",
"$  c #140B0A",
"%  c #190E0C",
"&  c #180600",
"*  c #1B1304",
"=  c #1C120C",
"-  c #1A1507",
";  c #180F10",
":  c #150C11",
">  c #1C1313",
",  c #1B1613",
"<  c #24150B",
"1  c #2B1C0C",
"2  c #261906",
"3  c #351C09",
"4  c #251A14",
"5  c #241C1B",
"6  c #271A16",
"7  c #351D12",
"8  c #230E06",
"9  c #1F250B",
"0  c #292309",
"q  c #35260D",
"w  c #2D221B",
"e  c #2B2615",
"r  c #352414",
"t  c #3C2314",
"y  c #352C1C",
"u  c #3C2B1D",
"i  c #36261A",
"p  c #3B321C",
"a  c #3A3414",
"s  c #38380A",
"d  c #291F21",
"f  c #2C2323",
"g  c #2B2328",
"h  c #342A25",
"j  c #3C2D24",
"k  c #332A2B",
"l  c #362827",
"z  c #3A3328",
"x  c #3B3333",
"c  c #3C3536",
"v  c #35322C",
"b  c #42280B",
"n  c #442B15",
"m  c #442A1B",
"M  c #4A2C1C",
"N  c #462816",
"B  c #47361A",
"V  c #54331C",
"C  c #583819",
"Z  c #4B3510",
"A  c #613C1B",
"S  c #442D25",
"D  c #443323",
"F  c #44342B",
"G  c #4D3C2C",
"H  c #493928",
"J  c #5D3B22",
"K  c #513D2D",
"L  c #583B25",
"P  c #433935",
"I  c #443B3B",
"U  c #473A35",
"Y  c #513E33",
"T  c #623D25",
"R  c #374C15",
"E  c #394623",
"W  c #36562F",
"Q  c #4B441C",
"!  c #4B4517",
"~  c #52461B",
"^  c #554B1C",
"/  c #5A4C1E",
"(  c #534715",
")  c #5D521E",
"_  c #4B5018",
"`  c #654D1E",
"'  c #4A4425",
"]  c #534324",
"[  c #5B4D23",
"{  c #53442C",
"}  c #584A29",
"|  c #5E5324",
" . c #5D532C",
".. c #545425",
"X. c #4B4239",
"o. c #554434",
"O. c #5D4C3C",
"+. c #574737",
"@. c #5C5436",
"#. c #415C2F",
"$. c #644324",
"%. c #65442B",
"&. c #6C4B2A",
"*. c #674A28",
"=. c #744C27",
"-. c #625525",
";. c #645925",
":. c #63552B",
">. c #645A2B",
",. c #695C2C",
"<. c #6D542A",
"1. c #765829",
"2. c #684C34",
"3. c #6B5D32",
"4. c #6B5B3B",
"5. c #655737",
"6. c #775A36",
"7. c #774B30",
"8. c #536D38",
"9. c #6D632D",
"0. c #686229",
"q. c #74672E",
"w. c #6D6232",
"e. c #6C633C",
"r. c #6B6536",
"t. c #726434",
"y. c #766A35",
"u. c #72653B",
"i. c #756B3B",
"p. c #796D3C",
"a. c #7A6638",
"s. c #7B743C",
"d. c #5A661E",
"f. c #453A42",
"g. c #5C4C42",
"h. c #584941",
"j. c #5E5347",
"k. c #4B4142",
"l. c #624E43",
"z. c #645342",
"x. c #65544A",
"c. c #6C5A4B",
"v. c #6A5847",
"b. c #725C48",
"n. c #6D5B53",
"m. c #715C55",
"M. c #5A7749",
"N. c #6B6347",
"B. c #776846",
"V. c #7D7142",
"C. c #7D754A",
"Z. c #6B6353",
"A. c #746353",
"S. c #7B6B5D",
"D. c #786857",
"F. c #777756",
"G. c #7D6C62",
"H. c #786861",
"J. c #7D7364",
"K. c #835E36",
"L. c #856433",
"P. c #8A6536",
"I. c #8B653A",
"U. c #8B6B3C",
"Y. c #876838",
"T. c #926D3C",
"R. c #916638",
"E. c #93713D",
"W. c #9A713E",
"Q. c #847137",
"!. c #866945",
"~. c #817543",
"^. c #867A49",
"/. c #897D4D",
"(. c #867747",
"). c #957548",
"_. c #846A56",
"`. c #887757",
"'. c #967C53",
"]. c #9A7C55",
"[. c #947659",
"{. c #956F49",
"}. c #836E62",
"|. c #847264",
" X c #8C7B6C",
".X c #887667",
"XX c #917C6D",
"oX c #907866",
"OX c #8D7B72",
"+X c #957E73",
"@X c #6F8856",
"#X c #88803F",
"$X c #8B804A",
"%X c #97864E",
"&X c #8A8255",
"*X c #958B53",
"=X c #9D815A",
"-X c #958959",
";X c #9D935B",
":X c #8C9354",
">X c #A2855D",
",X c #A98C5D",
"<X c #A28659",
"1X c #A39A5C",
"2X c #948667",
"3X c #9A9162",
"4X c #9C8A7C",
"5X c #978376",
"6X c #8F8C71",
"7X c #A68961",
"8X c #AA8D65",
"9X c #A58664",
"0X c #AD9164",
"qX c #AE9169",
"wX c #A69A65",
"eX c #B19464",
"rX c #B2956B",
"tX c #B69A6C",
"yX c #B89C6B",
"uX c #A38B7C",
"iX c #A3897A",
"pX c #A8937B",
"aX c #B79B72",
"sX c #96AD74",
"dX c #BBA476",
"fX c #AEA36E",
"gX c #9CA35D",
"hX c #C0A379",
"jX c #9D8C84",
"kX c #A38E81",
"lX c #A59384",
"zX c #AC9484",
"xX c #AE9986",
"cX c #AA968A",
"vX c #AD9A8B",
"bX c #A5958B",
"nX c #B29B8B",
"mX c #B29785",
"MX c #B39E92",
"NX c #B89F94",
"BX c #AC9B90",
"VX c #B3A18E",
"CX c #B5A293",
"ZX c #BCAA9C",
"AX c #B9A598",
"SX c #BEACA3",
"DX c #BFB2A1",
"FX c #C3B19C",
"GX c #C2AEA3",
"HX c #C8B5A9",
"JX c #D1BDB4",
"KX c #CEBBB2",
"LX c #D5C2BA",
/* pixels */
"O O O X O + + + $ + + $ X - O @ = 0 ;XgX#X) ;XQ.y.w.w.:.u.wXB.Q :.u.<.;.$X*X~.;.;.-.t.%X,.-Xu.* - O $ . $ # . @ O O O + O O + + ",
"O O + O O + + + + $ $ + $ X + $ * e.fX%X1X%X;Xy.y.t.9.w.>.u.wX3.:.3.;.u.i.y.;.,.;.| V.&X-XwX-X3 - @ . % $ X + . O O + O + X + O ",
"O + O + + + + + + $ X X $ + * + B fX#X#XgXs.1X0.t.w.,.3.u.,.u.3X[ t.>.;.-.,.w.;.-.>.3./.*X(.-XQ * @ @ O X X $ + + + O O O + O + ",
"+ + + O + + + + + - X + + O + * F.;Xq.y.Q.$XQ.q.9.t.9.| -.| ( /.,.:.;.( / t.:.:.-.w.6.t.%X;././.2 * - O + + + X + + @ X + O O X ",
"+ O X O O + + + O . $ $ + = = + /.&X9.s./ ^.Q.-.t.,.Q.V./.~.V.9.t.( V.;X) ( :.:.;.,.p.,.9.9.q.1X' - + - + + X X $ X + + + + + X ",
"O + + O + O O + $ $ $ + . y 4 * V.V.w.p.>.w.-X;.t.,.-X-Xu.u.y.-.>.s.^.p.(.p.Z } t.~.i.~.-.0.q.1X@.2 +.- + + + ; X $ $ + + + + + ",
"+ X O + O X O O . + X X $ j e + e.>.-.w.p./ /.t.-.(.,.[ ( / | 0.-.^.p.( >.r.^.} i.t.(.;.,.0.) fX0.Q pXe - * X + X - - X $ + $ + ",
"O + O + + + O + O O @ X Z.F.N.2 B. .>.3.w.w. . .,.u.[ | :.( / ) | V.-.( ;.:.C.^.i.-XQ.-.t.,.-.;Xs.:XfXa 9 * X + X + X X $ $ + + ",
". O O O O O + O @ X $ e 2Xw.-XN.V. .,.>.;.-.V.B.t.:.} :.] ..#.d._ s.8.R _ 4. .>.&X3.] u.:.-.;./.*X%X1X0.* < X + + + + $ + $ + + ",
". . O . X X X X O X   y :X9. .e.3.B.[ 3.) s.&X0.i./ :...q 8.sXgX@X:XgX@Xs _ 0.u.C.e.~ ^ ,.,.;.a.Q.s.*X1X .@ = @ $ + $ + + + X X ",
". . . . . . . . . X # p :Xq.| ;.B e.:.~ p.~.| Z V.~ | ! 9 6XsX8.8.@X@XsXR !  .r.C.Q u.3.,.,.( s.s.;.;X*X3X0 = X X + $ + + X X + ",
".     .   .   o X o . r -Xs.) 9.@.} B.! ~. .Q a &X>.^ d.9 @X@XR W W @X@XR ..^ e.N.'  .$X) ) [ 2X-.s.*X1XC.2 = + + + X X X X + + ",
"                  o   p &X| r.9. .b V. .e...0 - { `...>.a E M.W W W W W _ ..4.~.J.@.a p.9.^.:.| | r.;.*X! 2 * X + + + X X + O + ",
"                      4 2X..| w.[ V.$XV.+.' - h 0 5.&X:.} E E E W 9 9 ' Q 4.`.5.+.0  .,.t.;Xi.^ t.:.,.%Xr.@.+ + + + X X X X O O ",
"                    $ . z F. .Q i.p.| >.' 9 e e x.5.B.=X5.F.@.z 9 9 X.E } !.D |.O.r ] 3.[ i.(.) ;.t.&X;X3Xp - $ + $ + + X O + O ",
"                  X   . X 2 { @.2X/ w.| ! * - Z.jXS.B.(.`.4X2XJ.9 f Z.z } 4.}. X2Xz.B 5.:.( *X-.^.p.u.wX>.* = + + + + + + + O + ",
"    . . . . . . . . # . + # 4 p.^.^ @.@.' p z D.l.A.2X`.2X4X|.oXj.S.XXN.O.x.5XY  XA.a N.e.^ s.V.dXs.#Xi.2 * $ X + + + X + X + X ",
". o . . . . X . . . $ # + 4 O r.C.^ ..@.' O.{ e D N.`.`. XD.kXXXj.G.5X|.+.5.vXg.Y u ' C...>. .i.s.:Xr.0 * - + X X - + + X + + + ",
"o . O O . # o O O $ $ + * . p $X>.Q 0 B K +.G A.G.O.o.F o.G.vXO.x.n.4XCXY v.}.h.o.p 2 @.v.] ..`.Q 0.C.a O + X + X X + X + O O + ",
"O . . . . O O O . % X X @ O Z.p.' 0 s 5.oXc.g.S.D.z.Z.Y h Y U D h.+.h.n.S u F g.S.h.y |.N.B a &X5.w. .- ; X - X X $ + + O + O O ",
"$ O . X O O O O $ . O + $ - N.>.s 0 +.N.2XuXu v..Xx.X.j.k.S U g.h.Y F F j D F j.n.X.x.BXv.B } @.a r.@.. % X . X + + X + + X O O ",
". $ O O O O O O $ . + @ - X @. .0 z N.5.iXmX}.O.|.OXH..X}.n.+XOXm.OX}.H.H.+XOX5X}.n.5XjXD. .' 0 p ..N.e . $ + @ + + + + O + O + ",
"O O O X O X O + X X + . $ < N.! y p c.|.mXiXkX4Xx.A.D.c.O.+XHXOXx.n.AXbXH.S.}.}.OXlXbXnX2X@.a 4 y } N.U O . $ X + + X + X O + O ",
"O O O + O + + + $ + + * . P `.! j F N.2XHXKXCXbXbXBXOXg.o.BXJXbXjX5XHXHXl.7 c.5XkXlXDXFX`.} 9 , 9 ..@.z . % . + $ + + + + + X + ",
"O O + X O + O + + + + X z J.+.' * S.J.Z.KXJXMXcXvXvXnX}.l.vXcXm.m.x.jXGXg.h.zXMXnXMXNXHXm.m.h.> * z { O + $ X + + + + X + X + + ",
"O + + O O O + O . X $ - U w - - e O.U x.JXKXSXcXMXvXkXlXzXzXc.i f.l l.bXjXkXnXcXnXkXSXGXz.lXOX< , e X O + X X X X + + X X X X + ",
"O O O + # O O O $ $ . +   + + . v |.h.l.HXJXSXAXnXCXnXnXzXnX5X+.L Y iXnXNXnXnXzXnXcXHXMXz.l.D.2 + = $ = + + - X $ + + X X + + O ",
"$ # X X X X . .   . $ $ + $ $ # i .XY n.MXLXHXBXCXnXzXmXzXmXxXiXg.+XNXbXzXnXnXmXlXbXKXMXY m. Xv.' O $ X X X $ + + X $ X O O + + ",
". X o . . . .   . . . . % . $ % 1 |.g.OXbXJXLXBXnXnXxXnXmXmXxXxXMXcXMXMXNXzX+XnXlXCXKXOX+..X|.4.2X0 $ . + X o $ $ + + + O O + O ",
"o o . .             . #   + . w N.|. Xz m.LXSXAXVXxXxXmXVXmX.Xc.n.v.n.|._.m.iXNXlXZXSXH.l.XXb.] r.e O O X $ $ + + + $ X + + X + ",
". . .           .   o   . $   x.oX..2XDXG.SXLXSXVXVXzXiXoXb.O.S. XXXD.c.|.nXmXzXlXDXAXY }.}. .~ >.u . - X X X X - X + + O + O + ",
". o . . .         o   o o . . Z. .B D.2XjXjXLXSXcXVXvXiX_.iXcXlXlXkXnXnXnXzXnXmXlXHXpX.X2XO.| -. .j # + X $ $ + + $ + + + O O X ",
"O X . X . . . . . . . o . O . j.2 { `.w.N.F.LXSXcXAXmXmXzXGXSXBXcXlXzXnXiXzXNXzXNXHXoXc.v.:.w.;.:.j . + + X X $ + + X X X $ X + ",
"O + O O O O . X . # O $ # $ + P - |. .u.>.X.DXLXNXnXaXmXiX.Xm.2.l.o.Y m.iXnXuXNXFXFX.X_.5.u.9.s.H 4 + X X $ + X + $ + X + + X X ",
"+ O O + O O + O . O . + . O + - j 4.] B.F.z.bXLXGXcXmXpXmXXXb.v.v.A._.kXNXmXnXnXHXNX XzX5.V.p.q.N.+ $ O $ . X $ $ . X + X O O O ",
"O O O X O O O + O O O O O O + . o.{ ..`.`..X4XLXGXNXpXmXpXzXNXb..XkXmXzXiXmXNXAXJX+X+XmXb.6.~.) C.< < @ 8 = + . @ X X + . @ O X ",
"+ + O + O + X O O + @ X + $ O + @.} @.B.N.VX5XbXHXNXzXmXkXiXkXoX_.mXzXzXNXzXmXGXNX_.nXzXoX3./.) u.H S m S H r < O - + X O . + . ",
"+ O O X + O O + O O O . + + . e @.O. .5.B.nXVXv.NXNXzXzXzXzXuXuXkXiXkXmXaXzXGXAXc.XXNXMX9X:.C.Q r.K 7 n N N n D r O + O X $ + . ",
"+ + O + O + X O O + + + + + O h X.+.@.4.N.AXAXm.+.cXzXuXkXiXcXzXcXcXzXmXiXmXAXb.v.AXMXvX X5.B.] | K t n N N N m H 3 + + . # $ . ",
"+ + + + + + O O X @ X $ @ O O z e @.{ ] c.AXGX}.F K iXmXiXzX+Xc.z.A.oXuXzXNXb.Y lXMXCXXXoX4.z.B ( D 7 m M N N 7 L D.* @ . . .   ",
"+ + X $ X + + X O + + X + X + h - z.q H N.ZXCX5XF F i G.BXH.S l l l h n.lXO.j J.CXZX4X`._.!.:.B H N 7 N 3 N N N '.`.Y & # .   . ",
"+ $ $ X # + + O + . @ X $ $ . # < @.r { _.BXAXlXU z h 7 h.w f f f w l h j l X.vXDXCX5Xz.A..X+.D D 6 7 7 N 3 V oXI.B.4.O & #   . ",
"+ + + - + O + + O O + $ O O + . j O.7 H F.4XZXVXk.5 4 g X $ > : > > ; % % ; v H..X5XZ.O.D.2XO.K Y < l N N &.+X!.C $.] 8 @ . . $ ",
"+ $ $ + + $ + + $ O O $ @ . < i K { t q A.bXAXD.x = > 4 c X   o o o d k $ 6 I Y F w w S A.iXG H H m T b.{.[.7.V $.$.L 8 & @ + . ",
"$ + + X + + + $ $ X X . 8 G H N n n m 7 |.x.j w k % # 5 x #   . : k k.5 $ l I I h = 8 6 S B.B.5.!.`.B.6.~ V C &.%.T 2.v.K r q q ",
"+ + + + O + . $ o $ . p 2.M V M t u B 7 U j 4 f P > $ 4 P . . # > x w . g k.I c # o 6 1 4.'.%X).{.2.T Z C $.$.2.$.&.6.aXaX;XtXwX",
"- X + + + O O $ & + o.5.M n N m D u u i j l O ; I 5 # % P ; . ; l g $ 5 P P c 4 # # & B =X!.E.E.K.$.C V $.*.&.T $.I.7XtXeXyXeXyX",
"$ + + X @ O O $ @ O.:.b b Z M S j D F 6 l f % & c k X # g k # f , $ % x k.I f # $ $ * } ).Y.E.R.=.V L %.2.$.$.!.9X].].>XtXyX0XeX",
"+ + X X + @ + & 4.J b N N m i i U j > % > w ; + c k o # o k : : o : g f.I v $ # $ & t '.R.{.{.7.V V T %.T 7.qXdXaX].1.&.].8X7XrX",
"- X , X O & & l.2.3 N N t N i F 6 O # X o k $ , x k o . . 4 ; O o : v X.c ; + O # 8 4.!.R.W.K.T V T %.%.%.].dX0XqXI.&.!.aXtXaX0X",
"O . X % O . { { 2 3 3 7 l 7 k.f # . $   $ c o $ c d . X .   . . $ v P c x $ $ $ . B `.Y.R.W.T A L T T T !.tXrXyX[.&.6.rXaXtXyX0X",
"= $ # $ . D o.3 3 N t S S U l % o X . . g k o , x > $ . o $ . o g X.c X.v $   $ 2 v.{.L.W.K.A V J T %.&.].hXyXrX6.<.].dXrXeX,XrX",
". @ & & 6 z.3 b V N m i S Y > o . X   # f $ o g x o o O . .   f c k v x k d w w ] `.P.R.{.K.C J T V 6.9XaXrXyX<X*.!.aXrXaXrXeXeX",
"z.D 2 2 b.t M M N S u S P f #     . o # o o X k > o . o . $ > g g k k k d d < r Y.!.P.W.R.=.A A J 6.>XyXtXtXyXU.&.9XaX8XaXrXrXrX",
"4.%.M _.L 7 N M m 7 u F I 4   X o     $ .   % l o # # 5 k d > % $ $   # o O & :.Y.P.T.W.K.=.T &.7.9XaXeX,XyXeX6.!.tXrXrX8XrXeXrX",
"%.J 2.6.b V M N M t 1 6 5 ; $ : $ > $   . . > : O f x d ;   o . . . #   # $ n I.L.R.E.E.K.&.T 7.qXqX8X,XyXeX<X<.8XrXqXrXrXtX8XqX",
"&.] !.L M N S m S 6 < % % % # > $ 5 f 5 # . : 5 k 5 ; o       o     . o . 2 a.1.U.U.E.U.=.` $.].,X<X,XeXtXrX'.{.rX8X8XqXqXqX8X8X",
"[.7.oXV N M M 7 & & O . . .   .   o $ ; % : > 4 $ .               . . # & 2.a.L.E.E.T.L.` C {.8X).%X0X0X0XqX>X8XrX8X8X8X8X8X8X7X",
"_.2.[.B L t 6 & O .   .         .       o . . . . . . o o           : . { L.L.I.L.E.T.1.A K.>X].).<X,X0X8X8XqXqX8XqX8X8X8X7X7X7X",
"[.B.[.M S < & .   o o     o X   . . . o .   o . # o               o   r 6.1.L.T.L.E.R.` =.].).{.W.,X,X8X0X8X7X7X8X9X9X9X7X7X7X7X",
"7X`.[.H 1 O .     o ; > $ . . # . .   .   o , w v f o               @ u.1.L.P.R.E.P.L.1.{.{.).).%X,X,X,X7X7X7X>X7X>X>X>X9X<X=X>X",
"qX!.`.D & O .   o . > f l d # . . . . $ d v c c > o           o   . o.1.q.P.R.P.P.P.L.E.].Y.Y.T.<X,X>X,X7X7X7X9X>X>X>X>X=X=X=X=X",
"8X(._.r . o   .     .   % k 5 . . o > f x v w :                 o w 6.1.P.R.P.P.Y.U.P.).L.I.L.E.9X8X].,X>X=X<X>X>X>X].=X=X].].=X",
"=X[.!.1 @ .         . o   . : X o ; k x f :     o             o $ O.=.P.R.R.I.P.Y.P.L.L.Y.L.P.{.7X].].9X=X].].=X=X].].].'.).'.]."
};
