/* XPM */
static char *_b9632c3f3eb41bfc8c0ee4d6b191c50DNHFyqEn1zQtsVQF[] = {
/* columns rows colors chars-per-pixel */
"64 64 165 2 ",
"   c #2F5300",
".  c #325502",
"X  c #365B02",
"o  c #395D06",
"O  c #35570A",
"+  c #335A0A",
"@  c #3A5F09",
"#  c #356203",
"$  c #3C6204",
"%  c #3F6802",
"&  c #36620B",
"*  c #3D630C",
"=  c #3E6A0C",
"-  c #366310",
";  c #3E6310",
":  c #3D6912",
">  c #3E6B18",
",  c #416607",
"<  c #436C05",
"1  c #41670D",
"2  c #446C0D",
"3  c #496E0C",
"4  c #447204",
"5  c #4A7204",
"6  c #497905",
"7  c #45720D",
"8  c #4B740D",
"9  c #4D7A0D",
"0  c #527C0E",
"q  c #416612",
"w  c #446C13",
"e  c #496E14",
"r  c #456D19",
"t  c #496E1A",
"y  c #457113",
"u  c #4B7414",
"i  c #4D7A14",
"p  c #46721A",
"a  c #4C741A",
"s  c #4E7A1A",
"d  c #517613",
"f  c #537C14",
"g  c #587E16",
"h  c #51761B",
"j  c #537C1B",
"k  c #597E1A",
"l  c #477220",
"z  c #4C7121",
"x  c #4E7922",
"c  c #547D22",
"v  c #597F24",
"b  c #54810E",
"n  c #588409",
"m  c #5C880F",
"M  c #558215",
"N  c #5A8415",
"B  c #5C8915",
"V  c #56821A",
"C  c #5C851B",
"Z  c #5D841A",
"A  c #5E851B",
"S  c #5D871B",
"D  c #5D8419",
"F  c #5B811C",
"G  c #59821C",
"H  c #5D831C",
"J  c #5B841C",
"K  c #5E841D",
"L  c #5D861C",
"P  c #5E871D",
"I  c #5C851F",
"U  c #5F851E",
"Y  c #5D861E",
"T  c #5E871F",
"R  c #5B841B",
"E  c #5E881C",
"W  c #5F881E",
"Q  c #5D8A1C",
"!  c #618C15",
"~  c #60871C",
"^  c #60861F",
"/  c #62891C",
"(  c #60891F",
")  c #62891F",
"_  c #618B1F",
"`  c #638A1F",
"'  c #628C1D",
"]  c #679317",
"[  c #65911D",
"{  c #69941C",
"}  c #6D991D",
"|  c #568222",
" . c #5B8020",
".. c #5B8021",
"X. c #5D8320",
"o. c #5C8421",
"O. c #5E8721",
"+. c #5F8522",
"@. c #5A8124",
"#. c #5B8225",
"$. c #5E8324",
"%. c #5C8424",
"&. c #5F8424",
"*. c #5E8626",
"=. c #5C8522",
"-. c #5E8B21",
";. c #568128",
":. c #5C8028",
">. c #5C8328",
",. c #5B842A",
"<. c #5F8B2C",
"1. c #618720",
"2. c #618A20",
"3. c #638A20",
"4. c #628B21",
"5. c #628C20",
"6. c #638D21",
"7. c #638C22",
"8. c #658F21",
"9. c #648D23",
"0. c #668D23",
"q. c #638926",
"w. c #648A27",
"e. c #638C26",
"r. c #648D25",
"t. c #658E24",
"y. c #668F25",
"u. c #658E26",
"i. c #638C23",
"p. c #688E27",
"a. c #688E27",
"s. c #678D28",
"d. c #648D29",
"f. c #688E29",
"g. c #698F28",
"h. c #679026",
"j. c #659123",
"k. c #689127",
"l. c #6B9227",
"z. c #6A9425",
"x. c #6E9925",
"c. c #679028",
"v. c #66922A",
"b. c #689129",
"n. c #6A9329",
"m. c #6B912A",
"M. c #6C9329",
"N. c #6B942A",
"B. c #6D952B",
"V. c #6D972B",
"C. c #6A932D",
"Z. c #6B942A",
"A. c #6C992B",
"S. c #719C26",
"D. c #759C2F",
"F. c #719C2B",
"G. c #6C9532",
"H. c #6F9832",
"J. c #779E33",
"K. c #749D35",
"L. c #739C32",
"P. c #76A12D",
"I. c #7AA62D",
"U. c #73A230",
"Y. c #80A73A",
/* pixels */
". h q q v q . h q q O q q e e t k v g , o h k k B.g 3 , Y d G q.8 9 N 2.Y N C k.a.0 g 3 3 h 3 v k 3 d f 8 j >.a 1 y h N M j a r ",
"* t ; q v h o e q q q q t h h t d d h d 3 d h g Y.p.p.g 9.8 9 f g f G C G f N 9.g d d d d k h 1.d d j f 8 h j a #.d 3 f O.*.a * ",
"t ; O ; t h e o q q q e t h h d d d h k h 3 d k F C g.^ f.8 8 f k._ G N N f F _ g ~ f g g k 1.v u O.^ f f 8 u a h u d f u u w q ",
"t O O ; ; t t o q e q 3 3 t d e k k k k k h k / < 8 F f 7.9 f C M.9.N g N C ^ _ ~ M.g k k d w.h 2 w.w.N f e 2 h 3 8 u u 3 2 w e ",
"q O q q O , h q 3 t 3 , , 3 d 3 g k k d d q.l.0.0 f F 0 ` 0 N Y 9._ R C ^ u.h.9./ J.) ~ g d f.f 8 u.M.W C i y o.G u e u v X.a 2 ",
"@ ; h z O , h t t h d 3 3 3 d d 5 g k g g g.l./ ' ' N 8 7.M B C N G C Y 9.N.N.9./ D.l.~ g ^ f.k f k.V.[ _ f j *.C k j j v c h 3 ",
"@ q h h 3 3 h d e k k g d g g d 5 g k k k k g / B N N 6 ` B _ C f N C / _ k.u._ ~ l.D.~ f a.7.k F _ k.9.N g k j f f j h a w u j ",
", q d d 3 d d 3 3 k v g g k g d g / m.w.d , d 0.N ' 9.N x.C _ ' d N C G Y 2.2.C / { Y./ g M.k g W M ' _ 9 0 v 3 B u 2 w a v j u ",
"e q , t v 3 X e d d g g h k v m.k g 8 l.g.d k 0.! { S.[ ' ' 9.C _ M.N.9.u.G h O._ ' ! m G O.9.{ q.O.Y G G V k k z * u G 0 m { B ",
"q q , e h e 3 h d g g k g h k g q.q.g k g 8 k 0.0 ' { [ ' [ h.5.' B Y F.K.Y N V.W ' ] ] 2.*._ B G M k G J Y J G a e k Y < < 0 B ",
"o o q t t d k d k k k v k g d 3 1.m.` k g 8 / / n [ z.` N B C R ' ' 2.M.F.Y h 2.h.z.} { 2.1._ ' W G f 8 f Y u.N.j 2 8 N 0 9 f g ",
"o o e e , t v t d d d k H k g d ^ g./ q.k g k g C x.x.' 0 f N M N A.z.N C 9.M 4 D.S.} { _ O.9.x._ R N f M Y 2.2.O.8 8 B ` F j j ",
"t e e o   3 v k y e 8 u k G G N a.^ d a.m.f k k N _ 2.N 0 C 9.z.0 h.` 0 C z.5.G A.{ ] ] 2.o.5.F.M C 9.k.n.9.N 0 G C 2.x.9.8 y k ",
"q q t e 1 d h 3 h d u j k C _ 5.M.g 5 q.a.f F 7.f O.H f f _ x.M.{ ! B [ M.' W F.E ' ] x.u.G C { 9.' ' ' ' 9._ W f Y Y _ x.H u j ",
". , e h v h 2 1 h j j j G C ' h.^ g d ) a.g ^ H G O.J f f ' 9.' x.` [ x.F.M 0 M.E ! } S.N.G Y z.U.M.' N B ^ j.k.d o.0 f V.F.Y j ",
", e o o h h e k w u u d 0 f B ' 8 k g 0.a.k Y f h G G k B h.` B B { { ' ' N 0 N z.z.} S.k.X.2.F.z.z.M.A.x.0.B f a C.u.M ` 9.G 1.",
"o o 1 e 3 3 f 8 f 3 u < G m.u c.k.^ g d ~ 5 ^ g E N N N N N ` M./ ` h.g N ' B k.[ B [ F.x.x.S.z.{ m S.[ B ] 9 ' ' M b M -.-.V p ",
"e 3 h t e e d 5 V d 8 4 u k 8 V f g f k ^ 8 k d ' E N N 0 6 6 0 ' ! ! N ` x.' F.' N ' k.h.h.h.' S.' S.x.h.k.N ` A.S b M -.j.| | ",
"t t h e 1 a j 2 f f i V f h W f 8 F f a./ k k ~ j.' h.k.9.C N C B 0 N B z.z.B x.C 0 R j.' ' 5.E S.h.D.x.n.z.Y N.j.V b M -.<.| > ",
"e h z q @ h j , 9 f h s.J f G.f k a.f m.k k p.B.E C W 2._ C N C ' 0 B ` x.{ 0 ` G f Y N.h.5._ G z.9.' _ W W Y s.Q V b Q j.-.M = ",
"a a a ; @ a h $ f G h G 8 8 s.8 / l.d l.g k ` M.h.5.2.2.R f f M { B a.x.S.` 0 k.C f 2.V.N.2.W f z.' N N C G 2.s.j.Q Q j.j.V V > ",
"w q w q q v q.d G G 9 8 < i d.G g k g 0.g d k k n.s.r.-.R f k O./ B h.0.z.' n x._ M _ M.` C C f x.x.N ' ' C x.k.j.[ -.Q V M > | ",
", $ 1 w u o.d.G k G G < h r.O.2.g k g k / 8 k g M f f f f f M J N N ' m ' ' b ` x.C _ 9.~ B B M x.S.! z.x.B k.' Q V Q Q V V M p ",
"j 3 w a u j f 8 k O.u.i -.C.< 8 l.k k k g.d l.k q.-.q.q.-.J o.r./ ! ' 0 ! h.B ' D.{ [ ' B N ' B x.S.! S.x.N ' 0 M b Q A.A.j.V > ",
"q h j 2 2 f E 0 8 h C 0 < f k.0 g x.g M.C 9.Y k Y ' R M S z.z.5.B B { ! B { ~ ! L.O.k -.q.J G q.{ ] B B B [ j.-.V -.M V j.j.B -.",
"q w y u f g C C h f h f 0 G W f ` D.~ M.Y N.u.2.n.h.E f R h.n.5.] ' D.x.z.S.{ z.c.Y J r.-.f f J B { { B b M Q j.Q j.j.-.-.-.-.j.",
"w , 2 j V f f N d d 9 f 1.Y M N N 0.0 ` N Y 7.-.h.9.E M W z.h.E B ! S.z.z.S.{ h.Y G O.N.q.f 8 G m ' j.B b M Q j.6 V -.M 7 6 B V ",
"3 e y j h f 8 8 y V f f u.2.N _ 0 / 0 N 0 h Y M f N B E 9.A.5.0 0 0 ` ' ' h.! [ N g Y V.N.G N 5.Q S M M -.j.j.V V -.A.-.4 V A.V ",
"e j j u h k u < 2 f.s.f W 5.N C 0 ` C E C f Y h 0 R E E 9.k.' f E N j.' ' k.` x.Y N C n.z._ E 9.R f f N [ A.-.B Q -.v.V 7 -.U.| ",
"u k k u u o.k 2 8 C.G.N f Y C 0 N ` 9.W 5.f 2.j _ j.5.G N _ ' R ' N ' E B ` C x.7.N B a.z.R N ' 9 N C C B Q [ Q b i 6 4 = s s > ",
"h h u 8 i k j u u k q.R f G _ M N ' j.B 9.f u.G C j.9.N f R ' ' E f _ C R C f _ B N _ x.h.N 0 ' M E ' ` ] [ ] B Q V i 7 s | p 7 ",
"V 8 < 8 u u u u u < h E f R j.E N ` h.N 9.f N.2.0 E 9.B 0 N W W h.B z.h.5.5.N ' 0 M 9.F.k.M N h.z.` B [ U.U.} n j.-.6 7 | | 7 > ",
"k j d j h a h v 2 w *.o.j O.@.G.-.Q V -.[ -.[ j.B Q V M i B B B x.' 0 h.x.f N 9 0 B / ` z./ ! x.B M 9 M -.-.j.Q Q 6 = 6 M M > b ",
"v j j j h u w u u j d.o.u h u *.i i i Q -.V i i [ j.j.V V B j.U.N ` B E ^ _ 7.8 N ! B B ` ! B z.' B M i V V B B -.i 9 V | V s V ",
"M h f f G h y 3 u f q.j u h u X.i V -.-.-.B 6 6 B [ -.V V M -.[ b h.! ' _ 7.k.0 ' ' N 0 B N N z.B Q M M b b M B -.b V -.-.h s ;.",
"f 0 9 G Y Y k j y 3 V h 8 h u k V Q -.A.j.-.B B b B Q Q Q Q B B { _ 0 M.F.F / G _ ' 0 0 N N g ` Q Q V V Q -.-.-.[ b b -.O.y r x ",
"N 0 8 h Y Y Y X.G u j y u h 7 y i V Q V Q Q j.-.B B -.-.-.j.Q 6 z.' 0 h.F.^ W M C C f 0 N N f ` Q Q Q -.A.A.j.B z.N 0 Y o.e 1 r ",
"N 8 8 9 h j j j *.d k j G q.j j V i i 9 M Q j.-.[ -.Q M V -.Q b N ] 0 0 O.u.N.0 N C f N C g 0 F j.-.Q [ A.} Q i z.B M G j u 2 r ",
"k u 8 8 y 3 u a j u j h V *.o.r.V b i 6 b j.-.Q B Q B b 6 V B Q 0 h.B g N C u.g N Y N G C 0 9 N v.j.-.[ [ Q V 9 E C G f j j j j ",
"h u u u e w e a e 3 j 8 1 8 1 h | V i V Q -.Q b 6 M Q V i b Q j.h.{ B h.Y 9 C u.F 2.Y N G 8 8 G v.j.Q [ B B V V 8 G R h 8 k H Y ",
"j *.o.a w u f f 6 < 8 u u k q.q.s 7 i -.Q b B j.j.U.B 6 Q j.-.i f M V S V M V V b Q -.M f N G f 9.F.M f G f s.u 6 B V b V x y = ",
"y j h a e u f 0 ' f k k y u Y C s s V Q -.Q -.} b [ j.-.Q Q 6 6 M N Q B -.B V B M M V V G N N Y ` { f f V J *.k 4 M M 7 i V : = ",
"3 e a a h c k f E V | V 3 8 g N 7 i V V Q -.[ B [ j.-.-.-.Q b -.V Q -.-.-.Q Q -.V 7 b Q 9.N g _ ` R R f h W j j 9 V i 8 | -.V i ",
"3 2 w e c j k f u y s s y u F C 7 V -.V V B B b U.Q 6 6 j.-.Q -.M Q -.-.-.-.-.-.V b M Q 9.C g g h.f 2.u 9 Y 8 f V | s y | -.Q V ",
"w , * * e a u 8 = 9 | | i V -.-.V -.j.Q V Q V 6 -.6 6 B U.-.6 6 M M Q -.-.Q -.-.V Q C C ' ^ g 9 -.d X.u i G 8 f s x = = M V V Q ",
"a q @ ; r u h f p 7 p | s i V B V -.j.Q B V i b B V b B -.i i -.M V V Q Q Q Q Q M Q ' f f C N 8 j u h j h k f G p V y = y i M V ",
"h u q r t a j k y = > p > i V 6 V V Q Q Q V V B [ [ V b i b V A.M Q Q Q V V V V S R M 9 9 0 F _ u a 7 j V i Y Y p s p s V V y V ",
"a w q t a a i v y - : 7 7 | j.-.Q b V -.-.V -.v.Q Q 6 b -.-.b V V -.-.Q V M b M W i 8 8 8 9 C J.a c w k G 7 Y V = s V x | y = p ",
"a w ; q x v h u = h y = V =.M V b -.Q Q j.V 6 | V i V -.v.-.V 6 9 Q j.-.-.-.-.-.0 f R 8 u G u j g f f 0 9 f g _ j 7 = s s = : p ",
"q ; ; w u u a a u | u 7 V V y V V -.V M Q i 7 V 6 -.-.b 6 6 V V V Q j.Q Q -.Q b 8 f G 8 u G u o.f k F Y G f f G *.i 7 y y = w s ",
"; q w w q q e a s | s y i i i V V V 6 i s s y | i j.j.9 4 i V | i V Q V -.-.V b f f G 8 h Y h O.G Y 5.u.-.-.R R *.s y y = * : p ",
"; q r w 2 * w u y i i u i i V -.| | s y s s s s -.-.-.V -.-.-.6 6 M M M -.j.V M C Y Y u k O.u q.Y J Y G J J o.o.| j s y = = y p ",
"w r r q 1 1 2 q y p M V s i M V <.| V s s p p 7 -.V V -.A.-.V i 7 i Q Q Q -.-.V _ Y Y f V G y j j d f f h f k k s V s y y y p p ",
"z t t t t u e u 7 = p | i i M = s i i V i s V 7 V i V v.-.i i -.6 -.-.-.V Q Q Q Y f G f j j 1 d u u h k G G j h 7 y s = 7 p y w ",
"a t t a a a h c V = > V M = V = 6 6 V V 7 V -.s i i s | | s V -.b -.v.Q M Q Q Y C G G f o.k , u G j j v o.G j d 7 y y = y s p * ",
"; q r w w e a h y # = V = M V M Q b -.-.6 V -.i 6 i i s -.<.| 7 M -.-.Q V Q Q W C f Y G q.Y 2 s *.j d y e y u d s s u 7 p ;.| = ",
"> & : a r u h h = = r w e e u a 7 7 -.6 y | 7 i 7 s -.| V i V -.V i | V 6 | v.i V V V i V V G d.i i i y y s y 7 w u e $ 2 c c w ",
"> + : p u u h u y y u w 2 e w w 7 7 | i V -.i s s s s i V Q V i V V V i 7 i V i b | M i V p 7 s i i i y 7 s y 2 e = , a c e 1 , ",
"> & : p a a u * u u r 2 2 e e 2 = 7 | V | <.V | | i i i V <.j.V -.V i i V i 7 -.b V V i V > = = i i s 7 2 y p y h 3 = w u 1 * r ",
"p = : p u r r @ w w 1 * q e a r 7 7 p s | | | i i s V M i V -.-.| | s i | s 7 s = i p V | V = = i s y 7 = w p u a a w * , e y 1 ",
"p & = : r a r 1 w w q * 1 r e r s > 7 i s i s 7 i | s i = 7 i i p <.V 7 s s > = = p p y c s 3 w s i y y w y p p $ w h h h h r X ",
"> # # = w r a r r t t q ; q w q p s > y > > p > | x i > p | V i = | s = p | s 7 > p p p a w 2 p s s y y y p p p e = w >.>.e 2 u ",
"y # = p w q r : q t a r * * q q 7 > > l s - p p > l p p s | ;.| > > > > > | ;.s - > p w r 1 * u s s p w p a r : c 2 1 h a , w @.",
"i = = s w ; @ O @ q a r ; * q r - y - x s > x l - > x l : : p | | = : 7 - : p > + r l r p q 2 a s y y = p x r * w u a h a a u r "
};
