/* XPM */
static char *_7e6cc408ba74822f1caed688bfb570fShliMuXRz7povkXt[] = {
/* columns rows colors chars-per-pixel */
"64 64 7 1 ",
"  c black",
". c gray24",
"X c #4E4E4E",
"o c #585858",
"O c gray44",
"+ c gray50",
"@ c gray63",
/* pixels */
"                                                                ",
" +++++++o@o+++++++++ ++++++++++++++++++++ +++++++++++++++++++++ ",
" +++++++oOo+++++++++ ++++++++++++++++++++ +++++++++++++++++++++ ",
" ++++++++OOo++++++++ ++++++++++++++++++++ +++++++++++++++++++++ ",
" ++++++++oOo++++++++ ++++++++++++++++++++ +++++++++++++++++++++ ",
" ++++++++@Oo++++++++ ++++++++++++++++++++ +++++++++++++++++++++ ",
" ++++++++@..++++++++ ++++++++++++++++++++ +++++++++++++++++++++ ",
" ++++++++@O.++++++++ ++++++++++++++++++++ +++++++++++++++++++++ ",
" +++++++++@O++++++++ ++++++++++++++++++++ +++++++++++++++++++++ ",
"                                                                ",
"                                                                ",
" ++++++++ +++@o+++++++++++++++ ++++++++++++++++++++ +++++++++++ ",
" ++++++++ ++oOo+++++++++++++++ ++++++++++++++++++++ +++++++++++ ",
" ++++++++ +++oX.++++++++++++++ ++++++++++++++++++++ +++++++++++ ",
" ++++++++ ++++@O++++++++++++++ ++++++++++++++++++++ +++++++++++ ",
" ++++++++ +++++O++++++++++++++ ++++++++++++++++++++ +++++++++++ ",
"                                                                ",
" +++++++++++++++@oo+ ++++++++++++++++++++ +++++++++++++++++++++ ",
" ++++++++++++++++@O+ ++++++++++++++++++++ +++++++++++++++++++++ ",
" +++++++++++++++++O+ ++++++++++++++++++++ +++++++++++++++++++++ ",
" +++++++++++++++++@O ++++++++++++++++++++ +++++++++++++++++++++ ",
" +++++++++++++++++++ Oo++++++++++++++++++ +++++++++++++++++++++ ",
" +++++++++++++++++++ +O++++++++++++++++++ +++++++++++++++++++++ ",
"                                                                ",
" ++++++++ ++++++++++++++@Oo+++ ++++++++++++++++++++ +++++++++++ ",
" ++++++++ +++++++++++++++@o+++ ++++++++++++++++++++ +++++++++++ ",
" ++++++++ +++++++++++++++@Oo++ ++++++++++++++++++++ +++++++++++ ",
" ++++++++ ++++++++++++++++@O++ ++++++++++++++++++++ +++++++++++ ",
" ++++++++ +++++++++++++++++O++ ++++++++++++++++++++ +++++++++++ ",
"                                                                ",
" +++++++++++++++++++ +++++++@Oo++++++++++ +++++++++++++++++++++ ",
" +++++++++++++++++++ ++++++++@o++++++++++ +++++++++++++++++++++ ",
" +++++++++++++++++++ ++++++++@OOO++++++++ +++++++++++++++++++++ ",
" +++++++++++++++++++ ++++++++++@Oo+++++++ +++++++++++++++++++++ ",
" +++++++++++++++++++ +++++++++++@O+++++++ +++++++++++++++++++++ ",
" +++++++++++++++++++ ++++++++++++O+++++++ +++++++++++++++++++++ ",
"                                                                ",
" ++++++++ ++++++++++++++++++++ +++@++++++++++++++++ +++++++++++ ",
" ++++++++ ++++++++++++++++++++ +++@O+++++++++++++++ +++++++++++ ",
" ++++++++ ++++++++++++++++++++ ++++Oo++++++++++++++ +++++++++++ ",
" ++++++++ ++++++++++++++++++++ ++++@O++++++++++++++ +++++++++++ ",
" ++++++++ ++++++++++++++++++++ +++++Oo+++++++++++++ +++++++++++ ",
"                                                                ",
" +++++++++++++++++++ +++++++++++++++@@o++ +++++++++++++++++++++ ",
" +++++++++++++++++++ ++++++++++++++++@o++ +++++++++++++++++++++ ",
" +++++++++++++++++++ ++++++++++++++++@O++ +++++++++++++++++++++ ",
" +++++++++++++++++++ ++++++++++++++++@Oo+ +++++++++++++++++++++ ",
" +++++++++++++++++++ ++++++++++++++++@@o+ +++++++++++++++++++++ ",
" +++++++++++++++++++ ++++++++++++++++@@o+ +++++++++++++++++++++ ",
"                                                                ",
" ++++++++ ++++++++++++++++++++ +++++++@O+++++++++++ +++++++++++ ",
" ++++++++ ++++++++++++++++++++ ++++++++@o++++++++++ +++++++++++ ",
" ++++++++ ++++++++++++++++++++ ++++++++@Oo+++++++++ +++++++++++ ",
" ++++++++ ++++++++++++++++++++ +++++++++@O+++++++++ +++++++++++ ",
" ++++++++ ++++++++++++++++++++ ++++++++++@o++++++++ +++++++++++ ",
"                                                                ",
" +++++++++++++++++++ +++++++++++++++++++++ @o++++++++++++++++++ ",
" +++++++++++++++++++ +++++++++++++++++++++ @O++++++++++++++++++ ",
" +++++++++++++++++++ +++++++++++++++++++++ @@o+++++++++++++++++ ",
" +++++++++++++++++++ +++++++++++++++++++++ +@o+++++++++++++++++ ",
" +++++++++++++++++++ +++++++++++++++++++++ +@oo++++++++++++++++ ",
" +++++++++++++++++++ +++++++++++++++++++++ +@@o++++++++++++++++ ",
" +++++++++++++++++++ +++++++++++++++++++++ ++@o++++++++++++++++ ",
"                                                                "
};
